<svg width="41" height="50" viewBox="0 0 41 50" fill="none" xmlns="http://www.w3.org/2000/svg">
<path d="M16.1921 32.8374C17.027 30.9223 17.7424 28.9573 18.3342 26.9537C19.364 23.6549 20.1432 20.2771 21.2657 16.9988C21.9266 15.004 23.2479 13.2941 25.0116 12.1514C26.7752 11.0087 28.8758 10.5015 30.9666 10.7135C31.1632 10.7121 31.3594 10.6961 31.5536 10.6655C30.2686 9.73812 28.7576 9.17385 27.1794 9.03191C25.6011 8.88997 24.0137 9.17558 22.5839 9.85878C20.1672 11.1117 18.5951 13.1713 17.7025 15.612C16.6727 18.4303 15.9862 21.3687 15.1898 24.2659C14.5204 26.6688 14.0639 29.1747 12.6015 31.2755C10.7616 33.9222 7.61721 34.1007 5.44773 31.7286C3.62152 29.7377 3.07228 27.3107 3.07228 24.6916C3.07228 17.7369 3.07228 10.7845 3.07228 3.83434C3.07228 3.55629 3.10318 3.28168 3.13064 2.88005H21.7532V0H0V1.15683C0 8.58981 0 16.0194 0 23.4455C0 24.3311 1.04349e-06 25.2236 0.102983 26.1058C0.384466 28.979 1.00922 31.7115 2.84916 34.0869C5.98324 38.1444 13.5455 38.7177 16.2127 32.834" fill="white"/>
<path d="M40.1079 26.4937C40.1187 25.0019 40.0293 23.511 39.8401 22.0312C39.4969 19.5253 38.6867 17.1911 36.9258 15.2619C33.6338 11.6575 26.6997 11.4859 24.259 16.7482C23.4795 18.4101 22.812 20.1223 22.2612 21.8733C21.1867 25.3541 20.3285 28.9069 19.2163 32.374C18.2106 35.5115 16.1269 37.7737 12.9139 38.7485C11.733 39.0918 10.4526 39.1399 9.20996 39.3252C9.29116 39.3906 9.37597 39.4513 9.46398 39.5072C13.4528 41.8895 18.6397 40.5679 21.2176 36.5447C23.0679 33.6578 23.9432 30.4276 24.6503 27.1254C25.2339 24.3792 25.8037 21.5815 27.1837 19.0756C29.1266 15.5537 33.1498 15.3854 35.4668 18.6809C36.864 20.6615 37.2896 22.9065 37.2965 25.2648C37.2965 32.0582 37.2965 38.855 37.3205 45.6517C37.3205 46.9081 37.2725 46.9974 36.0023 46.9974C30.51 46.9974 25.0176 46.9974 19.5253 46.9974C19.2232 46.9974 18.674 47.0695 18.6637 47.1622C18.5393 47.9017 18.5173 48.6548 18.5985 49.4003C18.6225 49.5788 19.3331 49.7641 19.7312 49.7676C26.02 49.7928 32.3133 49.7928 38.6112 49.7676C39.0815 49.7676 39.5484 49.7058 40.1491 49.6612V47.9036C40.1491 40.7567 40.1491 33.6098 40.1491 26.4628" fill="white"/>
</svg>
