<?xml version="1.0" encoding="UTF-8"?>
<svg id="Layer_1" xmlns="http://www.w3.org/2000/svg" version="1.1" viewBox="0 0 193.3 366.08">
  <!-- Generator: Adobe Illustrator 29.8.1, SVG Export Plug-In . SVG Version: 2.1.1 Build 2)  -->
  <defs>
    <style>
      .st0 {
        fill: #fff;
        fill-rule: evenodd;
      }
    </style>
  </defs>
  <path class="st0" d="M58.27,1.87c1.28,1.45,4.83,3.45,8.89,5.72,1.02.57,2.07,1.15,3.12,1.74,1.06.61,2.12,1.23,3.16,1.86,2.08,1.24,4.09,2.49,5.81,3.65.82.55,1.72,1.18,2.67,1.87.94.71,1.93,1.47,2.95,2.27,2.03,1.6,4.18,3.33,6.3,5.02,2.1,1.66,4.07,3.28,5.85,4.79,1.78,1.52,3.34,2.96,4.59,4.35,12.37,11.42,22.81,24.49,31.08,38.5,8.28,14.01,14.43,28.93,18.41,44.13,4,15.2,5.91,30.63,5.96,45.74,0,15.13-1.83,29.92-5.19,44-1.78,7.13-3.73,13.61-6.1,19.89-1.18,3.14-2.38,6.27-3.74,9.4-1.36,3.13-2.8,6.28-4.38,9.53-1.31,2.75-2.77,5.37-4.24,7.96-1.49,2.58-3.01,5.12-4.63,7.6-1.62,2.46-3.29,4.89-5.02,7.29-.86,1.2-1.74,2.4-2.63,3.58-.9,1.18-1.81,2.35-2.74,3.52-3.31,4.19-6.72,8.45-10.39,12.28-1.75,1.85-3.54,3.66-5.38,5.43-1.85,1.75-3.74,3.48-5.68,5.18-1.61,1.42-3.19,2.81-4.8,4.19-1.61,1.38-3.28,2.71-5.06,4.09-2.13,1.64-4.34,3.2-6.59,4.71-2.25,1.5-4.54,2.91-6.8,4.34-1.84,1.16-3.73,2.33-5.69,3.5-1.96,1.15-4.01,2.29-6.14,3.4-2.87,1.48-6.38,3.31-10.34,5.07-1.98.9-4.07,1.8-6.23,2.7-1.08.45-2.19.89-3.31,1.34-1.12.42-2.25.84-3.4,1.25-9.16,3.34-19.13,5.89-27.29,7.1-3.86,1.08-6.98,2.06-11.28,2.96,2.61-.18,5.35-.46,8.17-.83,2.82-.38,5.71-.81,8.67-1.44,2.95-.6,5.95-1.3,8.95-2.08.75-.2,1.5-.39,2.26-.6.75-.21,1.51-.44,2.26-.66,1.5-.45,3.01-.92,4.51-1.41,12.01-3.85,23.54-9.3,33.3-14.52,3.66-2.33,7.75-4.87,11.92-7.63,4.15-2.81,8.38-5.86,12.31-9.04,10.9-8.88,20.92-19.8,28.28-28.47,1.86-2.62,3.69-5.15,5.52-7.69,1.82-2.54,3.64-5.08,5.34-7.77,2.02-3.24,3.79-6.56,5.65-9.99,1.78-3.27,3.48-6.59,5.08-9.95.81-1.68,1.59-3.37,2.35-5.07.75-1.7,1.45-3.43,2.13-5.16,1.63-4.21,3.07-8.98,4.35-13.25,1.01-3.29,1.95-6.44,2.82-9.61.84-3.17,1.58-6.36,2.22-9.68.33-1.71.63-3.45.9-5.21.26-1.76.48-3.53.69-5.31.41-3.56.76-7.16,1.03-10.73.24-3.37.58-6.67.69-10.03.12-3.15.09-6.36-.02-9.59-.11-3.23-.29-6.49-.58-9.74-.31-3.25-.69-6.5-1.15-9.73-.23-1.61-.46-3.23-.74-4.83-.28-1.6-.57-3.19-.88-4.77-.69-3.5-1.36-7.19-2.26-10.59-1.7-6.41-3.84-12.5-6.21-18.64-.84-2.19-1.69-4.37-2.57-6.53-.89-2.16-1.84-4.28-2.81-6.41-.98-2.12-2-4.23-3.05-6.34-1.07-2.11-2.22-4.17-3.41-6.23-1.55-2.67-3.13-5.26-4.76-7.78-1.65-2.5-3.34-4.95-5.09-7.36-.87-1.21-1.76-2.4-2.66-3.59-.92-1.17-1.85-2.34-2.8-3.51-1.9-2.32-3.87-4.63-5.94-6.94-3.91-4.36-10.92-11.56-14.62-14.48-5.26-4.42-12.13-9.84-19.55-14.74-3.71-2.41-7.54-4.77-11.28-6.8-3.75-2.01-7.41-3.79-10.76-5.23"/>
  <path class="st0" d="M58.6,311.44c-.11.35.25.4,1.01.18.75-.22,1.89-.72,3.06-1.37.07-.04.13-.07.2-.11.07-.05.13-.11.2-.16,1.94-1.6,3.68-3.58,5.16-5.07,1.36-1.39,3.53-3.22,5.19-5.27.42-.5.8-.99,1.16-1.48.35-.48.68-.96.99-1.41.64-.9,1.25-1.71,1.95-2.37,4.46-6.56,7.77-13.23,10.2-19.75,1.28-3.27,2.16-6.47,3.01-9.66.41-1.59.68-3.13.98-4.69.28-1.54.61-3.11.74-4.6.17-1.5.31-2.99.44-4.47.05-.74.15-1.49.15-2.2.01-.72.02-1.43.02-2.14,0-1.42,0-2.83-.04-4.22,0-.35-.02-.69-.03-1.04-.03-.34-.06-.67-.09-1-.07-.67-.13-1.33-.2-1.99-.14-1.32-.3-2.63-.47-3.93-.02-.16-.04-.32-.07-.48-.01-.08-.02-.16-.03-.24-.01-.09-.01-.13-.05-.28-.1-.53-.34-.96-.65-1.26-.63-.6-1.52-.7-2.5-.27-.49.21-1.01.58-1.47,1.08-.11.13-.23.26-.34.4-.1.14-.2.28-.3.43-.11.17-.22.34-.33.51-.41.63-.82,1.26-1.23,1.88-.85,1.27-1.71,2.52-2.58,3.74-1.77,2.53-3.46,4.82-5.13,7.14-1.67,2.31-3.33,4.65-5,7.25-.36.54-.71,1.08-1.06,1.62-.36.54-.72,1.07-1.08,1.6-.69,1.07-1.45,2.11-2.14,3.18-1.45,2.11-2.8,4.28-4.1,6.49-.53,1-1.07,2-1.54,3.01-.23.5-.46,1-.7,1.5-.12.25-.24.5-.36.74-.11.25-.22.49-.33.74-.43.95-.94,1.89-1.33,2.84-.42.94-.89,1.9-1.23,2.84-.29.79-.61,1.56-.81,2.31-.21.76-.43,1.52-.69,2.32-.25.94-.57,1.92-.93,2.9-.3.96-.57,1.92-.79,2.85-.17.75-.21,1.47-.31,2.23-.05.38-.09.75-.15,1.14-.03.38-.06.76-.1,1.15-.06.53-.11,1.11-.15,1.72-.04.61,0,1.23,0,1.9-.02,1.34.16,2.71.28,4.12.03.72.19,1.39.27,2.09.1.69.14,1.41.25,2.08.11.66.2,1.33.25,1.98.07.66.05,1.27.17,2.03,1,.83,2.05.94,2.58,1.52.04-.81.07-1.64.1-2.5,0-.38-.01-.74-.05-1.1-.03-.4-.07-.81-.1-1.22-.08-.84-.22-1.65-.35-2.49-.08-.86-.19-1.71-.32-2.56-.4-3.45-.51-7.15.34-10.78-.28-2.45,1.02-6.14,2.11-9.53,1.44-4.68,3.78-9.96,6.59-13.8.45-1.12,1.05-2.21,1.77-3.26.68-1.06,1.46-2.09,2.15-3.17.85-1.28,1.55-2.6,2.44-3.92,1.69-2.51,3.62-4.89,5.38-7.34,1.07-1.49,2.03-3.29,3.12-4.75,1.67-2.26,3.35-4.2,4.93-6.51.41-.59.81-1.22,1.2-1.85.2-.32.4-.65.59-.97.05-.08.09-.16.14-.24,0-.01.02-.03.03-.05.02-.03.03-.07.06-.09.08-.12.31-.26.52-.24.21.01.36.15.39.36,0,0,.01.09.02.16,0,.07.01.14.02.22,0,.15.02.29.02.44,0,.3.01.59.01.89,0,.59,0,1.19.04,1.76.13,2.15.42,4.26.41,6.55.02,1.13.03,2.26.03,3.39,0,.57-.01,1.14-.02,1.7-.02.57-.09,1.16-.14,1.74-.13,1.29-.41,2.7-.55,3.96-.07.6-.11,1.18-.16,1.77-.07.59-.13,1.18-.21,1.77-.14,1.18-.29,2.37-.55,3.59-.32,1.73-.94,3.52-1.51,5.29-.29.88-.58,1.77-.89,2.66-.3.89-.67,1.79-.99,2.69-.43,1.17-.86,2.31-1.3,3.44-.45,1.13-.99,2.26-1.49,3.38-.53,1.12-1.02,2.24-1.61,3.37-.59,1.13-1.19,2.27-1.83,3.42-.57,1.1-1.55,2.56-2.48,3.96-.46.7-.92,1.38-1.34,2-.43.62-.81,1.17-1.08,1.6-2.47,4.1-7.45,9.61-12.01,13.9.11-.07.21-.15.32-.22-1.18.75-2.34,1.63-3.73,2.55"/>
  <path class="st0" d="M57.76,324.46c2.8-1.57,1.7-3.22,1.93-4.66.16-.7.92-1.88,1.09-2.82.08-.47.03-.86.05-1.25.04-.39.15-.78.5-1.21.7-5.77,2.4-11.83,4.42-17.84,2.04-6.02,4.45-12.01,6.66-17.81.27-.74.56-1.45.86-2.15.29-.7.58-1.38.85-2.06.58-1.37,1.13-2.73,1.64-4.2.89-2.48,2.27-4.9,3.34-7.38.47-1.11.76-2.24,1.23-3.35.22-.54.46-1.07.7-1.6.25-.54.5-1.07.74-1.61.38-.91.62-1.76,1-2.71.43-1.13,1.16-2.28,1.62-3.4.36-.92.66-1.88,1.07-2.9.57-1.37,1.19-3.34,1.92-5.41.72-2.07,1.56-4.23,2.53-5.92-.07-.89-.32-1.64-.28-2.64-1.57,2.09-2.69,4.75-3.71,7.42-1.02,2.67-1.97,5.36-3.2,7.7-.31,1.85-1.59,4.08-2.46,6.23-1.17,2.96-2.26,6.05-3.91,8.44-.2,1.33-1.1,2.61-1.73,3.94-.37.79-.53,1.56-.87,2.37-.68,1.54-1.55,3.09-2.23,4.61-.4.93-.46,1.91-.88,2.81-.66,1.41-1.42,2.71-1.99,4.08-.59,1.41-.85,2.82-1.48,4.26-.28.68-.78,1.38-1.09,2.05-.28.63-.56,1.27-.82,1.92-.24.64-.46,1.28-.69,1.92-.23.64-.45,1.28-.69,1.92-.21.63-.42,1.26-.66,1.89-.26.7-.7,1.46-.95,2.15-.41,1.28-.43,2.43-.86,3.69-.27.89-.62,1.79-.98,2.7-.18.45-.36.91-.54,1.36-.15.45-.28.89-.39,1.33-.27,1.14-.62,2.25-.82,3.32-.21,1.07-.42,2.14-.61,3.24-.12,1.02-.73,2.87-.65,3.63.15,1.09,0,2.57-.19,4.08-.08,1.47-.05,2.91.53,3.87"/>
  <path class="st0" d="M34.65,344.23c.77-.07,1.58-.19,2.3-.29.73-.11,1.35-.22,2.02-.44-.14.04-.27.09-.41.13,2.37-.41,5.77-1.3,8.07-1.7.93-.15,1.98-.23,3.11-.34,1.11-.08,2.3-.17,3.55-.38,1.25-.23,2.44-.46,3.53-.67,1.08-.2,2.04-.36,2.7-.25,1.9-.3,3.8-.64,5.66-.95,1.83-.26,3.65-.54,5.47-.85,1.77-.24,3.51-.45,5.26-.71.44-.06.87-.12,1.3-.19.42-.04.84-.09,1.26-.13.84-.09,1.67-.17,2.51-.27.83-.09,1.66-.19,2.49-.29.83-.11,1.6-.12,2.4-.2,1.58-.12,3.16-.25,4.73-.4,1.52-.07,3-.11,4.49-.19.74-.03,1.49-.07,2.23-.11.76-.06,1.42,0,2.13-.01,2.79.04,5.65-.09,8.18.16,1.3.08,2.6.14,3.89.2.67,0,1.25.11,1.86.19.6.08,1.21.15,1.81.23,1.2.15,2.4.28,3.6.41.15.02.3.03.45.05.07,0,.14.01.21.02.01.01.03.02.05.02.07.03.11.08.13.17.05.16-.09.51-.25.72-.08.11-.15.17-.21.23-.01.02-.04.03-.05.04,0,0-.02.01-.03.03,0,0-.1.07-.15.11-.23.17-.46.33-.69.5-.93.66-1.83,1.31-2.75,1.96-1.8,1.27-3.61,2.51-5.42,3.73-3.67,2.44-7.1,4.46-10.54,6.31-3.44,1.85-6.89,3.54-10.64,5.18-3.15,1.38-6.22,2.43-9.14,3.2-2.95.82-5.75,1.34-8.57,1.82-2.48.38-5.13.87-7.39.92-.54,0-1.08.02-1.62.02-.53,0-1.01-.06-1.51-.09-.5-.04-1-.07-1.49-.11-.49-.05-.94-.13-1.41-.2-1.62-.18-3.12-.39-4.67-.72-.85-.26-1.61-.59-2.34-.94-.65-.4-1.3-.81-2.03-1.15-.55-.3-1.12-.61-1.72-.91-.29-.16-.62-.3-.89-.48-.26-.19-.52-.38-.77-.59-.33-.28-.72-.57-1.15-.88-.38-.34-.79-.7-1.22-1.08-.93-.72-1.68-1.66-2.49-2.59-.43-.46-.69-1.01-1.02-1.52-.3-.53-.65-1.03-.85-1.59-.21-.56-.39-1.11-.53-1.66-.07-.27-.14-.55-.19-.82-.01-.07-.02-.13-.04-.2,0-.06,0-.11,0-.17,0-.11,0-.21,0-.32-1.06-.37-2.4-.83-3.14-1.97-.1.66-.23,1.45-.26,2.31-.02.43,0,.86.03,1.29.01.23.06.4.1.58.04.18.09.37.13.55.19.73.41,1.47.68,2.19.34.69.72,1.38,1.11,2.07,1.68,2.7,4.2,5.03,6.42,7.11.73.23,1.4.52,2.04.86.72.29,1.42.62,2.12.98,1.47.65,3.03,1.33,4.93,1.69.32.07.64.14.97.2.33.06.7.09,1.05.14.71.09,1.42.17,2.13.25.75.04,1.51.08,2.26.11.37.02.74.04,1.11.05.39,0,.78,0,1.16,0,3.01.06,6.14-.23,8.73-.27,1.82-.55,3.37-.79,5-1.15.81-.16,1.59-.3,2.41-.48.82-.19,1.65-.4,2.5-.63,1.01-.27,2.07-.67,3.1-1.04,1.04-.37,2.09-.79,3.15-1.19,4.02-1.51,8.04-3.05,12.03-5.09,2.43-1.25,5.05-3,7.36-4.36,3.57-2.08,6.82-3.94,10.17-6.25.86-.6,1.71-1.21,2.57-1.84.42-.31.85-.62,1.27-.93.25-.18.49-.37.74-.55.39-.29.77-.62,1.13-.96,1.45-1.4,2.35-2.88,2.64-3.97.32-1.12.11-1.98-.66-2.29-.09-.03-.19-.06-.29-.08-.11-.03-.14-.03-.21-.04-.13-.03-.25-.05-.37-.08-.24-.07-.47-.13-.71-.2-.46-.14-.93-.29-1.45-.37-3.81-.72-8.62-.53-13.09-.64-1.28.02-2.48-.15-3.75-.12-2.35-.03-5.18.68-7.66.8-.9.07-1.73.04-2.64.12-.89.06-1.79.11-2.68.16-1.79.11-3.55.12-5.56.45-2.56.36-4.98.61-7.56,1.06-1.28.2-2.55.4-3.84.58-1.33.24-2.68.49-4.05.74-.65.12-1.41.23-2.2.34-.82.14-1.68.28-2.53.42-1.7.28-3.34.51-4.51.84-5.61,1.43-13.34,2.55-20.66,4.59-.08.02-.16.04-.24.07-.03.01-.05.02-.08.03-1.6.7-3.03,1.42-4.1,1.95"/>
  <path class="st0" d="M28.96,335.25c-2.65,1.63-.24,2.57.32,3.6.32.47.18,1.41.66,2.04.24.31.6.54.87.78.29.23.5.46.38.83,4.07,3.39,8.81,6.21,14.31,8.21,5.51,1.99,11.83,3.1,18.62,3.19.85.03,1.68.03,2.5.03.81,0,1.61,0,2.4,0,1.62-.05,3.26-.14,5.15-.41,3.19-.47,5.81-.38,8.98-.93,1.41-.24,2.99-.74,4.42-1.08.69-.16,1.36-.29,2.03-.42.68-.15,1.36-.3,2.06-.47,1.16-.28,2.35-.74,3.61-1.15,1.49-.47,2.85-.64,4.35-1.15,1.21-.4,2.55-1.05,3.88-1.53,1.8-.68,4.47-1.96,7.21-3.34,2.74-1.37,5.54-2.84,7.78-3.76,1.17-1.15,2.11-2.31,3.26-3.46-2.68.86-5.88,2.55-9.22,4.22-3.33,1.66-6.79,3.31-9.59,4.04-2.51,1.46-5.15,1.93-7.82,2.77-3.68,1.14-7.71,2.34-10.03,2.05-1.94.83-3.08.51-4.62.72-.92.11-1.93.38-2.87.5-1.81.23-3.27,0-4.98.11-1.04.06-2.45.44-3.44.43-1.53,0-2.56-.39-4.04-.41-1.52-.03-3.26.08-4.75-.06-.68-.08-1.04-.45-1.66-.58-.58-.13-1.19-.23-1.82-.33-.61-.11-1.23-.23-1.85-.34-.63-.11-1.26-.22-1.88-.34-.6-.14-1.17-.3-1.72-.46-.61-.19-1.08-.52-1.69-.69-1.09-.38-2.58-.44-3.67-.84-.73-.31-1.33-.71-1.94-1.1-.31-.2-.61-.39-.93-.58-.3-.2-.61-.4-.95-.58-.86-.47-1.78-.89-2.55-1.39-.78-.5-1.58-.98-2.44-1.48-.76-.51-1.55-1.64-2.35-1.94-1.14-.46-1.94-1.41-2.88-2.3-.84-.94-1.71-1.89-3.06-2.4"/>
  <path class="st0" d="M93.7,313.8c.69-.36,1.38-.75,1.97-1.09.6-.35,1.09-.64,1.55-1.03-.11.09-.22.18-.33.27,1.88-1.17,4.43-3.13,6.28-4.31.75-.46,1.65-.92,2.6-1.42.95-.48,1.97-1,2.98-1.64,1-.64,1.95-1.29,2.82-1.88.87-.57,1.65-1.07,2.3-1.23,1.55-.97,3.09-1.98,4.6-2.95,1.51-.93,3.01-1.87,4.5-2.83,1.48-.89,2.94-1.77,4.39-2.67.36-.23.72-.45,1.08-.68.36-.2.72-.41,1.07-.62.71-.41,1.42-.83,2.13-1.25.7-.42,1.41-.84,2.11-1.26.7-.43,1.39-.77,2.07-1.17,1.38-.76,2.74-1.54,4.09-2.32,1.34-.71,2.65-1.39,3.97-2.1,1.31-.71,2.62-1.45,3.88-2.02,2.53-1.22,5.06-2.6,7.45-3.6,1.21-.55,2.41-1.1,3.6-1.66.6-.31,1.18-.51,1.76-.74.58-.23,1.15-.46,1.73-.7,1.15-.47,2.3-.95,3.43-1.44.14-.06.28-.12.42-.18.07-.03.14-.06.2-.09.01,0,.03,0,.04,0,.05,0,.1,0,.14.04.09.06.12.31.09.46-.01.08-.03.11-.04.13,0,.01,0,.02-.01.03,0,0,0,0,0,.01,0,0-.05.09-.08.14-.13.22-.26.44-.39.66-.53.88-1.03,1.73-1.55,2.58-1.01,1.68-2.04,3.33-3.09,4.97-2.11,3.29-4.18,6.18-6.33,8.94-2.14,2.76-4.35,5.41-6.83,8.15-2.08,2.3-4.24,4.33-6.42,6.1-2.18,1.81-4.36,3.34-6.57,4.86-1.97,1.31-4.03,2.78-5.99,3.76-.47.23-.93.46-1.4.69-.47.22-.92.38-1.37.57-.45.18-.91.36-1.37.54-.45.17-.89.3-1.34.46-1.52.55-2.95,1.05-4.5,1.47-.89.18-1.74.27-2.57.32-.79-.01-1.58-.03-2.4.05-.65.03-1.32.05-2.02.1-.35.01-.71.05-1.05.04-.33-.02-.67-.04-1-.08-.45-.05-.95-.09-1.5-.12-.53-.07-1.09-.15-1.68-.23-1.22-.11-2.4-.44-3.65-.74-.63-.14-1.16-.41-1.74-.63-.55-.24-1.14-.45-1.62-.76-.48-.3-.94-.62-1.36-.94-.21-.16-.41-.33-.6-.5-.04-.04-.09-.08-.14-.13-.03-.04-.06-.08-.09-.11-.06-.07-.11-.15-.17-.22-1.19.23-2.71.49-4.02-.02.24.51.53,1.14.95,1.76.21.31.45.62.72.91.14.16.27.26.4.37.14.11.27.22.41.33.56.44,1.16.86,1.8,1.26.69.34,1.41.67,2.13.99,3,1.19,6.54,1.74,9.65,2.27.78-.16,1.54-.24,2.3-.28.8-.1,1.61-.16,2.42-.21,1.66-.16,3.4-.34,5.28-.89.32-.09.64-.18.96-.27.33-.1.67-.23,1-.35.67-.24,1.34-.48,2.01-.72.69-.29,1.37-.58,2.05-.87.34-.14.67-.29,1.01-.43.34-.17.68-.33,1.02-.5,2.68-1.23,5.28-2.74,7.55-3.85,1.31-1.16,2.55-1.99,3.8-2.93.62-.46,1.25-.89,1.87-1.36.62-.48,1.25-.97,1.87-1.5.75-.62,1.47-1.35,2.19-2.05.72-.72,1.44-1.44,2.16-2.18,2.78-2.77,5.57-5.56,8.1-8.71,1.53-1.92,2.98-4.28,4.38-6.23,2.17-3.01,4.19-5.72,6.09-8.8.49-.8.96-1.59,1.43-2.41.23-.4.46-.8.69-1.2.13-.24.27-.48.41-.72.22-.39.42-.8.59-1.22.68-1.68.8-3.13.55-4.01-.23-.91-.84-1.39-1.71-1.21-.1.03-.21.06-.31.09-.12.03-.14.05-.22.08-.12.04-.25.08-.37.12-.24.08-.49.14-.73.2-.48.12-.96.23-1.46.42-3.76,1.33-8.03,3.73-12.12,5.7-1.14.6-2.31,1.02-3.44,1.61-2.14,1.05-4.39,2.83-6.57,4.01-.78.44-1.55.79-2.33,1.24-.78.43-1.57.85-2.35,1.27-1.57.85-3.15,1.61-4.82,2.69-2.15,1.35-4.22,2.55-6.35,3.95-1.06.68-2.12,1.35-3.2,2.01-1.08.72-2.18,1.45-3.31,2.19-.53.35-1.16.74-1.83,1.14-.67.43-1.38.88-2.08,1.32-1.4.88-2.76,1.71-3.65,2.41-4.35,3.3-10.72,7.09-16.16,11.37-.07.05-.14.11-.21.16-.02.02-.03.03-.05.05-1.07,1.13-1.96,2.2-2.6,2.97"/>
  <path class="st0" d="M84.05,309.52c-1.72,2.36,1.01,2.04,2.03,2.58.53.22.85.99,1.61,1.27.37.14.82.15,1.19.22.38.05.69.14.75.47,5.44.84,11.15.97,17.1.17,5.95-.81,12.16-2.62,18.26-5.41,1.54-.68,2.97-1.38,4.37-2.04,1.42-.72,2.84-1.48,4.39-2.48,2.6-1.7,4.99-2.73,7.54-4.48,1.14-.78,2.3-1.82,3.41-2.68,1.07-.81,2.14-1.54,3.21-2.4.9-.71,1.74-1.56,2.66-2.39,1.1-.98,2.25-1.69,3.33-2.71.89-.81,1.77-1.87,2.73-2.8,1.29-1.27,3.06-3.37,4.86-5.56,1.81-2.19,3.63-4.49,5.23-6.13.5-1.35.78-2.61,1.26-3.95-2.04,1.78-4.14,4.4-6.35,7.07-2.2,2.66-4.52,5.36-6.68,7.09-1.54,2.16-3.68,3.63-5.65,5.38-2.73,2.4-5.73,5.02-7.96,5.76-1.31,1.44-2.5,1.69-3.76,2.48-.76.47-1.53,1.1-2.31,1.58-1.5.93-2.91,1.37-4.38,2.17-.89.48-1.96,1.37-2.84,1.78-1.36.64-2.48.78-3.8,1.38-1.37.61-2.87,1.44-4.26,1.95-.65.23-1.15.09-1.77.25-.58.15-1.18.32-1.79.51-.6.17-1.21.35-1.82.52-.61.18-1.23.36-1.85.54-.6.15-1.19.27-1.77.38-.64.11-1.22.05-1.85.18-1.17.18-2.54.76-3.71.92-.81.07-1.55.02-2.29-.01-.37-.02-.74-.04-1.12-.04-.37-.02-.74-.04-1.14-.03-1.02,0-2.04.08-2.99.03-.96-.04-1.92-.07-2.95-.07-.94-.06-2.21-.57-3.1-.46-1.28.14-2.48-.23-3.78-.5-1.24-.35-2.5-.69-4.02-.5"/>
  <path class="st0" d="M141.73,256.54c.48-.64.94-1.29,1.33-1.85.4-.57.71-1.03.95-1.54-.06.13-.12.26-.18.39,1.17-1.82,2.58-4.6,3.74-6.43.48-.74,1.09-1.54,1.73-2.42.66-.86,1.36-1.78,1.99-2.79.62-1.01,1.19-1.99,1.72-2.89.53-.89,1.02-1.68,1.55-2.15.98-1.56,1.92-3.13,2.87-4.69.97-1.52,1.91-3.04,2.84-4.57.95-1.48,1.89-2.95,2.81-4.43.23-.37.46-.74.69-1.11.23-.35.47-.71.7-1.06.46-.71.93-1.42,1.38-2.13.46-.71.91-1.42,1.35-2.14.45-.72.91-1.37,1.36-2.06.91-1.36,1.8-2.72,2.67-4.09.89-1.31,1.78-2.59,2.65-3.89.87-1.3,1.72-2.62,2.59-3.8,1.74-2.42,3.38-4.97,5.08-7.18.84-1.15,1.66-2.3,2.47-3.45.4-.6.82-1.11,1.23-1.64.41-.53.82-1.07,1.22-1.6.81-1.07,1.6-2.15,2.39-3.23.1-.13.2-.27.29-.4.05-.07.09-.13.14-.19,0,0,.02-.01.03-.03.04-.03.07-.05.12-.05.09-.02.21.13.24.23.02.05.01.07.01.07,0,0,0,.01,0,.01,0,0,0,0,0,0,0,0,0,.1-.01.15-.02.24-.04.48-.06.72-.08.97-.15,1.89-.24,2.83-.15,1.84-.33,3.66-.52,5.48-.4,3.66-.94,6.99-1.58,10.26-.65,3.27-1.4,6.48-2.34,9.9-.79,2.88-1.77,5.6-2.89,8.14-1.1,2.57-2.34,4.94-3.61,7.31-1.15,2.08-2.3,4.32-3.6,6.16-.31.44-.62.87-.94,1.3-.32.43-.65.8-.97,1.2-.33.39-.65.79-.98,1.18-.33.38-.67.73-1,1.1-1.11,1.27-2.18,2.46-3.39,3.64-.72.64-1.46,1.19-2.2,1.71-.73.45-1.47.89-2.19,1.41-.59.39-1.19.8-1.82,1.23-.31.21-.63.44-.95.63-.32.18-.64.35-.97.51-.44.21-.93.48-1.45.77-.52.25-1.08.52-1.67.79-1.19.62-2.46,1.06-3.76,1.54-.66.26-1.29.37-1.94.54-.64.14-1.29.32-1.89.37-.6.05-1.19.09-1.74.09-.28,0-.55,0-.81-.02-.06,0-.13,0-.19-.02-.04-.01-.09-.02-.14-.03-.09-.02-.17-.04-.26-.06-1,.84-2.31,1.88-3.81,2.24.47.24,1.05.54,1.77.75.35.11.74.2,1.14.25.21.04.38.04.57.05.18,0,.37,0,.55.01.75,0,1.53-.03,2.32-.11.82-.14,1.66-.31,2.5-.49,3.41-.84,6.98-2.47,10.14-3.87.64-.56,1.31-1.06,1.99-1.52.69-.54,1.4-1.04,2.13-1.54,1.45-1.07,2.97-2.2,4.42-3.68.25-.25.5-.5.75-.75.25-.26.5-.55.74-.82.5-.56.99-1.12,1.48-1.68.48-.6.96-1.21,1.44-1.81.24-.3.47-.6.71-.9.23-.32.46-.63.68-.95,1.84-2.44,3.46-5.03,4.99-7.15.61-1.59,1.33-2.91,2.01-4.31.34-.69.7-1.37,1.04-2.07.33-.71.66-1.43.97-2.18.38-.89.68-1.83.99-2.76.31-.94.61-1.88.91-2.84,1.18-3.63,2.38-7.3,3.19-11.08.48-2.29.68-4.85,1.03-7.1.56-3.48,1.14-6.68,1.44-10.07.08-.88.14-1.74.19-2.62.03-.43.05-.86.08-1.3l.04-.78c.02-.43.01-.86-.02-1.27-.14-1.66-.67-2.79-1.28-3.26-.6-.51-1.35-.44-2.04.26-.08.09-.16.18-.24.27-.09.11-.1.13-.16.2-.09.11-.18.22-.27.32-.18.21-.37.41-.55.6-.37.39-.74.78-1.1,1.24-2.72,3.37-5.45,7.8-8.25,11.75-.76,1.14-1.62,2.15-2.38,3.27-1.46,2.07-2.69,4.73-4.15,6.9-.51.79-1.05,1.5-1.57,2.29-.52.77-1.04,1.54-1.57,2.31-1.06,1.54-2.15,3.02-3.19,4.78-1.36,2.24-2.72,4.3-4.04,6.53-.66,1.1-1.34,2.19-2.02,3.28-.67,1.14-1.34,2.29-2.04,3.46-.33.56-.73,1.19-1.16,1.85-.42.68-.87,1.41-1.31,2.11-.89,1.42-1.76,2.76-2.26,3.77-2.48,4.79-6.61,10.97-9.57,16.92-.04.08-.08.16-.12.24,0,.02-.01.04-.02.06-.44,1.38-.73,2.62-.93,3.5"/>
  <path class="st0" d="M130.57,258.52c-.48,2.7,1.95,1.01,3.17.86.6-.11,1.28.29,2.13.09.42-.1.85-.33,1.23-.48.38-.17.72-.27.94-.05,5.52-2.29,10.92-5.3,16.06-9.18,5.13-3.88,9.97-8.69,14.22-14.21,1.09-1.37,2.06-2.7,3.03-3.99.95-1.34,1.88-2.71,2.82-4.34,1.56-2.75,3.26-4.89,4.75-7.67.66-1.23,1.22-2.67,1.83-3.96.59-1.22,1.21-2.39,1.79-3.65.49-1.05.84-2.17,1.29-3.33.54-1.37,1.25-2.58,1.76-3.98.42-1.13.73-2.42,1.17-3.69.57-1.71,1.2-4.31,1.81-7.01.62-2.7,1.22-5.5,1.9-7.7-.17-1.29-.49-2.37-.66-3.64-1.03,2.58-1.73,5.79-2.51,9.09-.77,3.28-1.62,6.66-2.77,9.23-.39,2.5-1.65,4.86-2.62,7.31-1.36,3.38-2.85,7.05-4.54,8.9-.51,1.82-1.48,2.69-2.26,4-.47.78-.87,1.69-1.36,2.5-.93,1.54-2.01,2.68-2.97,4.11-.59.86-1.14,2.13-1.75,2.93-.94,1.25-1.9,1.98-2.83,3.17-.96,1.22-1.94,2.68-2.97,3.83-.49.53-1.02.72-1.51,1.18-.46.43-.93.89-1.4,1.38-.47.47-.95.93-1.43,1.4-.48.48-.96.95-1.45,1.42-.48.44-.97.86-1.45,1.26-.54.44-1.1.71-1.63,1.16-.99.78-1.98,1.96-2.99,2.72-.72.5-1.42.87-2.13,1.24-.35.19-.71.38-1.06.58-.36.19-.71.37-1.08.6-.94.56-1.86,1.17-2.77,1.64-.91.49-1.83.99-2.79,1.54-.91.47-2.35.77-3.13,1.33-1.13.79-2.44,1.16-3.8,1.65-1.34.4-2.69.82-4.03,1.76"/>
  <path class="st0" d="M165.03,179.15c.12-.62.25-1.31.41-2.2.12-.65.21-1.16.2-1.65,0,.14,0,.28,0,.42.25-1.99.31-4.85.55-6.87.11-.82.31-1.76.5-2.78.22-1.01.44-2.09.57-3.2.27-2.18.23-4.33.73-5.62.2-1.72.36-3.45.53-5.17.2-1.7.39-3.39.54-5.08.2-1.67.4-3.32.57-4.98.04-.41.09-.83.13-1.24.05-.4.11-.81.16-1.21.1-.81.2-1.62.29-2.42.09-.81.19-1.61.27-2.42.08-.81.21-1.58.3-2.36.21-1.57.39-3.13.56-4.69.21-1.53.42-3.03.61-4.54.19-1.51.35-3.03.58-4.46.43-2.9.74-5.85,1.19-8.57.2-1.39.39-2.77.57-4.15.17-1.39.43-2.66.62-4,.2-1.32.39-2.64.56-3.96.02-.16.04-.33.07-.5,0-.08.02-.16.03-.23,0,0,0-.01,0-.02.01-.02.02-.04.04-.07.04-.05.16,0,.19.03.02.01,0,0-.01-.02,0-.01,0-.01,0-.01h0s.03.08.05.11c.08.2.16.4.23.6.31.81.61,1.58.91,2.37.59,1.54,1.15,3.07,1.7,4.6,1.1,3.09,1.97,5.98,2.73,8.89.76,2.9,1.42,5.81,2.03,8.96.51,2.66.8,5.3.91,7.88.14,2.59.09,5.1.01,7.62-.09,2.24-.11,4.59-.41,6.72-.08.51-.15,1.02-.23,1.52-.08.5-.2.97-.3,1.46-.1.48-.21.97-.32,1.45-.11.47-.25.93-.37,1.4-.39,1.59-.76,3.1-1.26,4.69-.33.9-.71,1.73-1.1,2.54-.42.76-.84,1.5-1.21,2.31-.32.63-.65,1.29-.98,1.97-.17.34-.33.7-.52,1.02-.19.32-.38.63-.58.94-.27.42-.56.89-.88,1.41-.32.49-.68,1.02-1.04,1.56-.73,1.15-1.59,2.21-2.47,3.33-.44.57-.92,1.02-1.38,1.51-.47.47-.93.97-1.41,1.35-.48.38-.95.74-1.41,1.05-.23.16-.46.3-.68.43-.05.03-.11.06-.16.09-.04.02-.08.03-.12.05-.08.03-.16.06-.23.09-.47,1.24-1.15,2.85-2.28,4,.49-.07,1.1-.15,1.79-.38.34-.11.7-.26,1.07-.44.2-.09.34-.19.49-.28.16-.1.31-.2.47-.3.63-.42,1.26-.88,1.9-1.39.62-.57,1.25-1.18,1.87-1.8,2.49-2.59,4.77-5.88,6.8-8.74.29-.8.64-1.56,1-2.31.35-.8.72-1.59,1.11-2.39.75-1.64,1.53-3.37,2.11-5.33.44-1.3.74-2.79,1.09-4.19.15-.74.29-1.47.43-2.2.07-.36.14-.73.21-1.09.06-.37.11-.74.17-1.11.5-2.91.76-5.81,1.15-8.32-.29-3.09.01-5.83-.22-8.87-.05-.9-.19-1.79-.31-2.69-.12-.9-.28-1.79-.41-2.7-.5-3.47-.99-7.01-1.85-10.4-.52-2.06-1.38-4.14-1.98-6.1-.92-3.04-1.7-5.9-2.79-8.74-.28-.73-.57-1.45-.87-2.17-.15-.36-.29-.71-.44-1.06-.09-.21-.18-.43-.28-.64-.15-.37-.33-.71-.52-1.03-.78-1.28-1.63-1.87-2.28-1.89-.66-.04-1.21.47-1.46,1.48-.03.12-.05.24-.08.36-.03.15-.03.16-.04.25-.03.14-.05.28-.08.42-.06.27-.12.54-.19.8-.13.52-.27,1.05-.36,1.62-.76,4.27-1.14,9.39-1.81,14.12-.16,1.34-.45,2.62-.61,3.94-.35,2.47-.29,5.29-.62,7.82-.11.91-.26,1.78-.37,2.68-.12.9-.25,1.8-.38,2.69-.26,1.8-.58,3.57-.74,5.53-.24,2.51-.55,4.87-.76,7.34-.12,1.22-.25,2.44-.39,3.67-.11,1.25-.22,2.52-.34,3.8-.06.61-.14,1.32-.24,2.07-.08.76-.17,1.56-.27,2.35-.18,1.58-.38,3.09-.4,4.13-.15,5.04-1.19,12-1.26,18.1,0,.09,0,.18,0,.27,0,.02,0,.03,0,.05.19,1.29.46,2.38.65,3.13"/>
  <path class="st0" d="M156.44,186.7c.71,2.49,2.08-.2,3.05-.97.46-.41,1.21-.43,1.85-1.05.31-.3.58-.72.84-1.05.26-.34.5-.6.77-.54,3.72-4.79,7.01-10.07,9.7-15.89,2.69-5.82,4.73-12.21,5.99-18.85.33-1.67.59-3.24.87-4.78.24-1.57.45-3.16.55-4.95.16-3.01.69-5.62.79-8.63.04-1.34-.09-2.78-.12-4.12,0-1.29.03-2.55-.01-3.87-.03-1.1-.19-2.17-.3-3.33-.12-1.38-.02-2.73-.16-4.12-.11-1.12-.38-2.32-.54-3.56-.22-1.68-.76-4.08-1.34-6.56-.58-2.49-1.21-5.05-1.53-7.2-.65-.91-1.35-1.58-1.99-2.47.18,2.67.87,5.61,1.55,8.65.68,3.03,1.34,6.17,1.42,8.84.69,2.18.61,4.74.8,7.21.25,3.41.52,7.11-.14,9.49.33,1.7-.13,2.92-.24,4.37-.07.87-.03,1.8-.1,2.7-.14,1.71-.58,3.19-.79,4.83-.13.99-.06,2.29-.24,3.25-.27,1.48-.77,2.58-1.06,4.01-.29,1.48-.5,3.15-.89,4.61-.19.68-.56,1.1-.78,1.73-.21.59-.41,1.2-.6,1.83-.2.62-.41,1.24-.61,1.87-.2.63-.41,1.26-.62,1.89-.22.61-.45,1.2-.69,1.77-.27.63-.63,1.15-.88,1.78-.51,1.14-.83,2.62-1.37,3.76-.39.78-.83,1.44-1.27,2.12-.22.34-.44.67-.65,1.02-.22.34-.44.68-.66,1.05-.56.95-1.08,1.92-1.64,2.78-.56.87-1.12,1.76-1.71,2.71-.57.86-1.66,1.86-2.08,2.72-.62,1.25-1.57,2.24-2.52,3.35-.96,1.03-1.94,2.1-2.68,3.58"/>
  <path class="st0" d="M158.73,113.38c-.1-.77-.21-1.49-.28-2.07-.08-.59-.12-1.01-.24-1.38.05.13.09.26.14.39-.33-1.65-1.11-3.95-1.47-5.64-.14-.69-.23-1.51-.34-2.39-.09-.88-.2-1.82-.4-2.75-.38-1.83-1.04-3.54-.94-4.75-1.37-5.8-2.6-11.49-3.73-16.96-.14-.68-.29-1.37-.44-2.05-.15-.68-.26-1.35-.4-2.02-.26-1.34-.54-2.67-.83-4-.25-1.31-.49-2.61-.75-3.9-.26-1.29-.54-2.59-.75-3.83-.45-2.5-1-5.02-1.39-7.39-.22-1.2-.45-2.4-.68-3.59-.24-1.19-.39-2.32-.61-3.48-.21-1.15-.42-2.3-.65-3.44-.03-.14-.06-.28-.08-.43-.01-.07-.03-.13-.04-.2,0,0,0,.01,0,.01,0,.02,0,.03,0,.03,0,0,.05,0,0-.01-.02-.01-.08-.05-.14-.11-.01-.02-.03-.03-.04-.04,0,0-.01-.01-.02-.03,0-.01.05.06.07.08.11.14.23.29.34.43.45.56.89,1.12,1.33,1.69.86,1.09,1.7,2.17,2.53,3.26,3.32,4.41,5.75,8.36,8.4,13.04,1.11,1.98,2.04,4.02,2.8,6.06.79,2.04,1.41,4.06,2.04,6.1.53,1.81,1.18,3.69,1.53,5.49.17.86.32,1.71.4,2.54.05.42.1.83.15,1.25.04.41.06.82.1,1.23.14,1.39.28,2.72.35,4.15,0,.82-.07,1.6-.16,2.36-.12.73-.25,1.44-.31,2.21-.07.61-.14,1.24-.2,1.9-.05.67-.15,1.31-.29,1.93-.09.42-.18.89-.28,1.42-.11.5-.23,1.04-.36,1.6-.23,1.16-.58,2.32-.95,3.51-.17.61-.42,1.13-.63,1.68-.23.53-.45,1.09-.71,1.55-.26.46-.53.9-.8,1.29-.14.2-.27.38-.41.56-.04.04-.07.08-.1.13-.03.02-.05.04-.08.07-.05.04-.1.08-.15.12.06,1.22.03,2.91-.55,4.31.37-.17.84-.4,1.33-.8.25-.2.49-.43.74-.7.13-.14.22-.26.31-.39.09-.13.19-.26.28-.39.38-.54.74-1.12,1.09-1.74.33-.67.65-1.37.95-2.08,1.2-2.93,2.03-6.36,2.84-9.29.02-2.94.62-5.95.46-9.49-.03-1.19-.2-2.49-.32-3.74-.09-.64-.19-1.28-.28-1.92-.05-.32-.09-.63-.14-.95-.06-.32-.12-.63-.18-.95-.42-2.51-1-4.94-1.35-7.1-1.12-2.41-1.59-4.73-2.6-7.14-.6-1.42-1.34-2.76-2.04-4.16-1.33-2.67-2.65-5.43-4.23-7.95-.96-1.52-2.2-2.93-3.19-4.36-1.52-2.22-2.88-4.37-4.47-6.38-.41-.52-.82-1.02-1.25-1.52-.21-.24-.41-.49-.62-.73-.13-.15-.26-.31-.39-.46-.24-.28-.49-.53-.74-.76-1.02-.9-1.88-1.13-2.41-.93-.54.18-.83.82-.74,1.8.01.12.03.23.04.35.01.08.03.15.04.23.02.12.03.25.05.37.03.24.04.48.06.71.03.47.06.94.14,1.44.56,3.76,1.69,8.15,2.46,12.25.24,1.15.34,2.29.58,3.44.4,2.15,1.25,4.47,1.69,6.65.17.78.28,1.54.43,2.32.15.77.29,1.55.42,2.32.28,1.55.5,3.1.9,4.75.5,2.13.9,4.16,1.41,6.24.24,1.04.47,2.07.7,3.12.26,1.05.52,2.12.78,3.21.13.52.25,1.12.38,1.76.14.64.29,1.32.43,1.99.29,1.34.54,2.63.83,3.48,1.31,4.13,2.37,10.07,4.06,14.99.03.09.07.19.1.28,0,0,0,.01.01.02.53.99,1.06,1.77,1.43,2.27"/>
  <path class="st0" d="M154.11,122.14c1.43,2.11,1.67-.67,2.22-1.59.25-.47.88-.67,1.21-1.37.16-.34.25-.78.36-1.13.1-.36.22-.64.48-.65,1.55-5.13,2.64-10.45,3.13-16.01.48-5.56.32-11.38-.54-17.16-.21-1.46-.42-2.81-.64-4.15-.24-1.35-.51-2.71-.93-4.2-.72-2.5-.97-4.79-1.71-7.27-.33-1.11-.84-2.24-1.23-3.33-.36-1.05-.66-2.09-1.05-3.16-.32-.89-.75-1.72-1.15-2.63-.47-1.09-.73-2.24-1.22-3.34-.39-.89-.94-1.78-1.39-2.76-1.24-2.67-4.36-7.11-5.96-10.49-.79-.53-1.55-.83-2.32-1.34.79,2.2,2.1,4.41,3.45,6.7,1.34,2.28,2.71,4.64,3.46,6.82,1.17,1.56,1.75,3.69,2.57,5.63,1.12,2.7,2.35,5.64,2.41,7.76.76,1.29.69,2.41.99,3.62.18.72.49,1.47.67,2.21.36,1.43.38,2.75.66,4.14.17.84.62,1.88.73,2.71.19,1.28.06,2.31.24,3.54.17,1.28.51,2.71.61,4,.04.6-.16,1.05-.17,1.61,0,.54,0,1.09.03,1.65.01.56.02,1.12.04,1.7.02.57.03,1.14.05,1.72,0,.56-.02,1.11-.05,1.64-.03.59-.19,1.1-.21,1.69-.08,1.08.12,2.4.02,3.48-.09.75-.25,1.41-.42,2.08-.08.33-.16.67-.24,1.02-.08.34-.16.68-.22,1.05-.16.94-.3,1.89-.49,2.77-.19.89-.37,1.78-.55,2.74-.19.88-.78,2.01-.85,2.87-.11,1.25-.57,2.35-.98,3.56-.45,1.15-.9,2.35-1.02,3.87"/>
  <path class="st0" d="M131.21,57.98c-.28-.51-.55-.98-.75-1.36-.21-.38-.34-.66-.51-.86.07.08.13.15.2.23-.64-1.01-1.72-2.28-2.4-3.31-.27-.42-.55-.96-.85-1.53-.29-.58-.61-1.19-.99-1.76-.72-1.13-1.57-2.08-1.84-2.96-2.38-3.55-4.64-7.13-6.78-10.64-1.11-1.75-2.1-3.5-3.16-5.21-.49-.86-.99-1.72-1.49-2.56-.5-.85-1.02-1.69-1.48-2.52-.94-1.67-1.95-3.32-2.83-4.93-.46-.81-.92-1.61-1.38-2.41-.47-.8-.87-1.58-1.31-2.36-.44-.78-.88-1.56-1.33-2.33-.05-.1-.11-.19-.17-.29-.03-.05-.05-.09-.08-.13,0,0,0,.01.01.02.01.03.02.05.02.05,0,.01.02.01-.03.02-.02,0-.08-.01-.14-.05-.02-.01-.03-.02-.04-.03-.02-.02-.04-.03.04.02.1.07.2.14.3.21.39.27.79.54,1.18.81.76.52,1.51,1.04,2.26,1.56,3,2.12,5.41,4.16,8.14,6.58,2.32,2.07,4.22,4.53,6.02,6.94.8,1.09,1.69,2.17,2.38,3.3.34.54.66,1.08.94,1.63.3.54.58,1.09.84,1.64.47.92.93,1.79,1.37,2.76.24.58.42,1.14.58,1.7.14.55.28,1.1.46,1.65.25.89.65,1.88.84,2.84.07.32.16.69.25,1.09.08.39.17.81.27,1.25.21.9.35,1.83.49,2.8.12.95.19,1.89.19,2.76-.01.42-.03.83-.07,1.2-.02.19-.04.37-.07.55-.01.1-.03.16-.05.2-.02.04-.03.09-.05.14.4.82.89,2.03.98,3.25.16-.25.36-.59.53-1.06.08-.23.15-.5.21-.78.06-.28.08-.5.11-.77.05-.51.09-1.06.1-1.63-.01-.59-.04-1.2-.07-1.81-.19-2.5-.73-5.19-1.12-7.54-.85-2.05-1.38-4.38-2.49-6.79-.36-.82-.83-1.67-1.25-2.5-.48-.83-.92-1.66-1.42-2.46-.95-1.61-1.95-3.11-2.75-4.52-1.3-1.29-2.21-2.78-3.43-4.14-.73-.81-1.5-1.49-2.28-2.24-1.47-1.45-2.96-2.99-4.51-4.27-.94-.77-2-1.36-2.93-2.07-1.44-1.11-2.77-2.25-4.18-3.21-.37-.25-.72-.48-1.09-.71-.18-.11-.36-.23-.54-.34-.11-.07-.23-.14-.34-.21-.21-.13-.42-.24-.62-.33-.82-.34-1.35-.24-1.57.09-.24.32-.2.9.13,1.62.12.22.23.45.34.67.08.17.16.34.23.51.15.34.3.68.48,1.03,1.37,2.62,3.22,5.49,4.79,8.25.45.77.82,1.57,1.27,2.33.82,1.44,1.94,2.85,2.79,4.28.59,1.02,1.18,2.04,1.76,3.07.58,1.03,1.13,2.07,1.81,3.12.86,1.36,1.65,2.67,2.51,3.98.42.65.84,1.31,1.26,1.97.44.65.88,1.31,1.32,1.99.21.32.45.7.7,1.11.26.4.53.83.79,1.25.53.84,1.03,1.66,1.43,2.14,1.89,2.41,4.13,6.15,6.46,8.86.05.05.09.11.14.16,0,0,0,0,.01,0,.58.48,1.1.8,1.44.98"/>
  <path class="st0" d="M131.1,65.77c1.48.93.78-1.09.84-1.93,0-.42.32-.79.31-1.4,0-.6-.32-1.34-.04-1.55-.61-4.13-1.52-8.21-2.83-12.26-1.31-4.04-3.05-8.04-5.17-11.8-1.08-1.91-1.92-3.52-3.22-5.34-1.1-1.52-1.88-3.07-2.98-4.58-.49-.68-1.09-1.31-1.61-1.96-.49-.63-.95-1.28-1.46-1.92-.42-.53-.89-.98-1.37-1.5-.56-.63-1.02-1.38-1.6-2.01-.46-.52-1.01-.98-1.53-1.53-1.42-1.53-4.35-3.73-6.16-5.73-.57-.12-1.07-.08-1.62-.2,1.04,1.4,2.36,2.6,3.72,3.85,1.36,1.23,2.76,2.5,3.77,3.84,1.07.72,1.98,2.08,2.97,3.21,1.36,1.57,2.86,3.25,3.48,4.76.78.64,1.05,1.48,1.55,2.24.3.46.68.87.99,1.34.6.89.98,1.82,1.52,2.71.32.54.87,1.1,1.17,1.65.46.84.68,1.61,1.12,2.42.46.83,1.05,1.72,1.47,2.59.19.41.2.79.36,1.19.3.75.65,1.53.98,2.32.17.39.34.79.51,1.18.16.39.3.78.44,1.16.15.42.2.84.35,1.25.26.78.76,1.62,1.01,2.41.31,1.1.41,2.1.68,3.2.18.71.37,1.42.52,2.1.15.68.3,1.37.48,2.11.15.68.13,1.68.34,2.3.31.9.36,1.84.47,2.84.08.97.17,1.96.55,3.06"/>
  <path class="st0" d="M149.39,153.6c.2.29.39.22.58-.21.19-.42.36-1.21.44-2.13,0-.03,0-.05,0-.08,0-.11-.01-.22-.02-.32-.15-2.23-.9-4.65-1.3-6.57-.17-.76-.3-1.72-.46-2.76-.17-1.02-.39-2.11-.68-3.14-.59-2.02-1.45-3.55-1.63-5.16-.6-1.47-1.2-2.95-1.83-4.37-.65-1.4-1.31-2.79-1.98-4.16-.7-1.33-1.41-2.64-2.12-3.94-.18-.32-.36-.65-.54-.97-.19-.31-.37-.62-.56-.93-.38-.61-.76-1.22-1.14-1.83-.38-.61-.76-1.21-1.14-1.81-.38-.6-.79-1.14-1.19-1.71-.8-1.13-1.6-2.24-2.41-3.33-.83-1.03-1.66-2.06-2.5-3.06-.84-1.01-1.68-2.01-2.55-2.89-1.73-1.8-3.45-3.64-5.23-5.13-.88-.78-1.77-1.54-2.65-2.3-.88-.75-1.78-1.36-2.67-2.03-.89-.65-1.78-1.29-2.66-1.92-.11-.08-.22-.16-.33-.23-.06-.04-.12-.08-.17-.12-.1-.06-.21-.12-.31-.18-.41-.2-.82-.26-1.17-.18-.7.15-1.18.78-1.35,1.8-.09.51-.06,1.15.07,1.8.03.17.08.32.12.49.03.08.05.16.07.24.01.05.03.09.04.14.05.15.1.3.15.46.2.62.39,1.23.58,1.85.38,1.25.74,2.51,1.11,3.77.74,2.56,1.37,4.95,2.03,7.33.66,2.38,1.36,4.76,2.23,7.26.74,2.11,1.37,4.21,2.07,6.3.67,2.1,1.41,4.17,2.26,6.18.78,1.78,1.71,3.41,2.58,5.02.2.39.41.79.61,1.18.2.4.42.76.63,1.15.21.39.42.77.63,1.16.22.38.45.73.67,1.1.74,1.24,1.57,2.12,2.41,3.23.52.61,1.01,1.33,1.5,2.04.51.66,1.02,1.33,1.54,1.92.43.44.9.82,1.36,1.22.24.2.47.42.71.61.24.19.49.38.73.59.33.28.7.58,1.09.89.4.28.84.54,1.29.82.9.61,1.91,1.05,2.93,1.59,1.02.47,2.06.96,3.06,1.44.5.22.99.45,1.46.71.24.13.46.26.69.4.06.04.11.07.17.11.07.03.14.07.21.11.14.07.28.14.42.21,1.07-.47,1.58-1.38,2.14-1.58-.61-.45-1.15-.92-1.65-1.29-.25-.19-.49-.35-.73-.48-.28-.16-.57-.32-.86-.48-.6-.32-1.21-.59-1.83-.86-.61-.32-1.24-.61-1.87-.9-2.5-1.22-5.04-2.74-7.05-5.05-.44-.22-.89-.53-1.35-.91-.44-.43-.89-.92-1.35-1.43-.89-1.08-1.79-2.29-2.65-3.48-2.43-3.15-4.8-7.33-5.89-11.23-1.09-1.67-1.59-3.86-2.28-5.9-.22-.6-.44-1.21-.68-1.8-.24-.59-.47-1.2-.68-1.84-.8-2.44-1.34-5-2.05-7.46-.42-1.5-1.15-3.1-1.54-4.61-.61-2.33-.97-4.49-1.65-6.8-.17-.59-.37-1.21-.58-1.81-.11-.31-.22-.62-.33-.93-.05-.12-.09-.25-.14-.37,0,0-.03,0-.03,0,0,0,0,0,0,0,.02.04-.05-.12.03-.22.06-.11.16-.12.23-.08.01,0,.02.02.03.02,0,0,.08.06.11.09.09.08.19.16.28.24.19.17.37.34.55.51.37.35.73.71,1.1,1.01,2.78,2.16,5.71,4.44,8.41,7.13.74.78,1.47,1.74,2.19,2.5,1.37,1.38,2.74,2.64,4.05,4.22.46.58.92,1.13,1.35,1.77.42.64.85,1.28,1.26,1.93.84,1.28,1.67,2.58,2.5,3.92,1.08,1.72,2.12,3.35,3.06,5.15.48.88.96,1.76,1.43,2.66.46.92.92,1.86,1.38,2.82.22.45.46,1,.72,1.59.24.61.49,1.25.73,1.89.48,1.27.95,2.48,1.28,3.24,1.75,3.64,3.19,9.89,4.23,14.87,0-.1,0-.2-.01-.31.04.77.18,1.6.26,2.65"/>
  <path class="st0" d="M157.9,160.65c.22-3.12-1.45-2.76-2.33-3.54-.41-.41-.86-1.54-1.43-2.06-.28-.26-.58-.36-.84-.53-.26-.18-.47-.43-.59-.91-3.66-2.83-6.99-6.66-10.06-10.8-3.07-4.17-5.87-8.68-8.61-13.02-.7-1.09-1.29-2.21-1.91-3.26-.6-1.09-1.22-2.14-1.93-3.22-1.19-1.84-2.04-4.08-3.11-6.1-.48-.9-1.08-1.66-1.56-2.56-.47-.85-.89-1.78-1.34-2.68-.39-.74-.83-1.34-1.25-2.1-.51-.89-.85-2.03-1.34-2.95-.4-.74-.88-1.44-1.33-2.27-.58-1.13-1.55-2.59-2.51-4.2-.96-1.61-1.93-3.37-2.47-4.97-.65-.41-1.32-.62-1.99-1.17.46,2.28,1.59,4.53,2.78,6.69,1.2,2.17,2.46,4.26,3.31,6.39,1.08,1.16,1.83,3.28,2.78,5.02,1.32,2.38,2.79,4.72,3.46,7.19.8.77,1.14,2.12,1.69,3.24.33.67.77,1.15,1.12,1.8.67,1.25,1.22,2.69,1.89,3.93.41.75,1.05,1.23,1.44,1.97.6,1.16,1.06,2.38,1.69,3.46.65,1.1,1.47,1.93,2.13,3.06.31.52.52,1.26.82,1.8.28.51.58,1.01.88,1.49.31.47.64.93.96,1.38.32.46.65.91.97,1.37.33.44.65.88.96,1.34.35.51.64,1.2.99,1.68.67.87,1.46,1.34,2.12,2.21.48.59.93,1.25,1.37,1.93.22.34.45.67.68,1,.23.31.48.6.73.87.66.68,1.27,1.4,1.91,2,.64.61,1.29,1.2,1.96,1.79.65.5,1.66,1.76,2.23,1.97.84.27,1.8,1,2.77,1.73.99.64,2.02,1.17,2.97,1.02"/>
  <path class="st0" d="M135.92,90.37c.29.28.48.26.56-.06.08-.32.04-.96-.12-1.67,0-.01,0-.02,0-.03-.04-.12-.09-.23-.13-.35-.6-1.59-1.72-3.1-2.42-4.39-.28-.51-.57-1.18-.9-1.91-.33-.71-.71-1.47-1.14-2.15-.86-1.34-1.83-2.19-2.26-3.4-2.96-3.81-6.08-7.18-9.25-10.13-1.58-1.53-3.18-2.82-4.78-4.17-.8-.62-1.6-1.23-2.4-1.82-.8-.6-1.6-1.21-2.4-1.71-1.59-1.05-3.2-2.13-4.76-2.98-.79-.44-1.57-.88-2.35-1.31-.78-.43-1.55-.75-2.32-1.12-.77-.35-1.53-.7-2.29-1.04-.09-.04-.19-.09-.28-.13-.05-.02-.1-.04-.15-.07-.1-.04-.2-.07-.3-.1-.4-.11-.75-.09-1.02.03-.54.24-.8.85-.71,1.75.05.45.22,1,.49,1.55.06.14.14.27.22.4.04.07.08.13.12.2.02.03.04.07.06.1.07.1.13.21.19.31.26.42.52.84.78,1.26.52.86,1.03,1.73,1.55,2.6,2.11,3.54,3.75,6.69,6.11,10.1.99,1.43,1.89,2.88,2.84,4.32.93,1.45,1.91,2.88,2.96,4.23.95,1.19,2,2.19,2.98,3.21.47.5.93,1.02,1.41,1.5.24.25.48.5.71.75.24.24.48.46.73.69.81.78,1.6,1.24,2.45,1.89.51.35,1.02.8,1.53,1.25.51.41,1.02.82,1.53,1.15.82.45,1.66.79,2.54,1.18.3.14.62.28.97.42.34.12.71.21,1.09.32.77.24,1.58.33,2.4.5.82.13,1.65.23,2.46.39.4.06.8.14,1.19.24.19.05.39.11.58.18.05.01.09.03.14.05.06.01.12.03.19.04.13.03.25.06.37.08.64-.75.66-1.75.89-2.11-.57-.26-1.07-.56-1.48-.78-.21-.11-.4-.2-.59-.26-.18-.06-.47-.15-.7-.2-.49-.12-.97-.21-1.46-.28-.49-.11-.99-.19-1.49-.26-1.99-.35-4.08-.87-5.99-2.24-1.4-.04-3.28-1.78-4.99-3.1-2.38-1.78-4.98-4.32-6.5-7.1-1.16-.92-1.93-2.51-2.84-3.86-.54-.82-1.18-1.52-1.74-2.38-1.07-1.63-1.93-3.43-2.93-5.1-.6-1.02-1.5-2.04-2.08-3.08-.9-1.61-1.53-3.15-2.48-4.74-.24-.41-.51-.83-.79-1.25-.14-.21-.29-.43-.43-.64-.04-.05-.07-.11-.11-.16-.02-.03-.04-.05-.05-.08,0,0,0,0,0-.01,0,0,0,0,0,0h0c-.11.05.25-.12-.25.11,0,0,0,0,0,0t0,0s-.03,0-.03,0c.03-.03.3.15.31.18.01.04-.12-.19-.1-.16,0,.01,0,.02,0,.03,0,.04.02.08.03.12.01,0,.02.01.03.01.02.01.04.02.06.03.08.05.16.1.25.15.17.1.33.21.5.33.33.23.66.46.98.63,2.4,1.24,4.9,2.41,7.33,3.95.68.46,1.38,1.09,2.04,1.52,1.24.78,2.45,1.38,3.68,2.3.88.64,1.73,1.46,2.57,2.27.84.82,1.69,1.6,2.54,2.42,1.1,1.04,2.17,2.02,3.2,3.12.52.53,1.04,1.07,1.56,1.61.52.56,1.03,1.14,1.56,1.73.25.28.54.62.84.99.29.39.6.8.9,1.21.6.81,1.19,1.57,1.59,2.03,2.05,2.13,4.38,6.3,6.29,9.46-.03-.1-.07-.19-.11-.29.2.46.52.96.86,1.71"/>
  <path class="st0" d="M143.51,93.85c-.69-2.98-1.69-2.04-2.48-2.44-.38-.22-.97-1.09-1.48-1.35-.25-.13-.48-.11-.69-.17-.22-.07-.42-.2-.62-.6-3.14-1.16-6.3-3.21-9.34-5.58-3.05-2.39-5.97-5.11-8.81-7.7-.72-.64-1.37-1.36-2.03-2.01-.65-.68-1.31-1.33-2.04-1.96-1.23-1.08-2.27-2.66-3.43-3.94-.52-.57-1.12-.98-1.64-1.55-.51-.54-.98-1.16-1.49-1.74-.42-.48-.87-.82-1.32-1.29-.55-.56-.99-1.39-1.52-1.97-.44-.47-.93-.88-1.41-1.41-.64-.73-1.64-1.6-2.66-2.61-1.02-1-2.06-2.13-2.72-3.27-.61-.12-1.21-.07-1.86-.32.69,1.73,1.95,3.23,3.25,4.63,1.31,1.4,2.65,2.71,3.66,4.2,1.06.58,1.99,2.09,3.03,3.21,1.44,1.52,2.99,2.92,3.93,4.77.76.33,1.25,1.36,1.88,2.1.37.44.8.67,1.19,1.09.74.79,1.42,1.82,2.16,2.6.45.47,1.03.63,1.46,1.11.67.75,1.25,1.62,1.93,2.29.7.68,1.48,1.06,2.19,1.77.34.32.63.89.96,1.24.31.33.63.64.95.93.32.28.65.55.98.81.33.27.66.53.99.8.33.26.65.51.98.78.36.31.72.79,1.07,1.07.67.5,1.33.58,1.99,1.07.47.33.93.74,1.4,1.16.46.43.93.83,1.41,1.1.62.35,1.21.74,1.8,1.03.59.3,1.17.57,1.78.83.57.2,1.56.96,2,.93.64-.08,1.47.24,2.32.54.83.23,1.67.35,2.26-.14"/>
  <path class="st0" d="M109.93,39.33c-.55-.42-1.04-.79-1.42-1.11-.39-.32-.65-.56-.86-.66.09.03.19.06.28.09-1.02-.67-2.43-1.18-3.5-1.87-.44-.29-.96-.74-1.53-1.2-.57-.49-1.18-.99-1.77-1.38-1.18-.78-2.26-1.14-3.08-2.12-3.77-2.36-7.58-4.98-11.39-7.7-1.91-1.31-3.8-2.77-5.71-4.11-.95-.71-1.89-1.42-2.84-2.11-.95-.69-1.9-1.37-2.84-2.1-1.88-1.43-3.79-2.78-5.65-4.21-.94-.7-1.88-1.39-2.83-2.08-.94-.68-1.86-1.41-2.8-2.09-.93-.69-1.87-1.37-2.81-2.04-.12-.08-.24-.17-.35-.25-.05-.04-.11-.08-.17-.12.01,0,.03.02.04.03.05.04.1.09.13.12.04.07.07.08.05.16-.01.03-.05.08-.13.09-.02,0-.04,0-.06,0,0,0-.02,0-.03,0-.01,0,.04,0,.06,0,.1,0,.2,0,.3.01.39.01.78.03,1.17.04.75.02,1.49.05,2.24.07,3,.13,5.74.67,8.9,1.32,2.69.56,5.67,2.08,8.5,3.57,1.27.68,2.55,1.23,3.83,2.06.61.39,1.21.8,1.81,1.27.3.22.6.45.89.67.3.23.59.47.89.71.99.77,1.94,1.47,2.96,2.33.6.54,1.17,1.13,1.72,1.72.54.61,1.06,1.22,1.62,1.79.87.95,1.88,1.87,2.77,2.99.3.37.65.78,1.02,1.21.37.44.76.92,1.16,1.42.84,1,1.67,2.13,2.53,3.3.83,1.17,1.62,2.4,2.32,3.58.33.59.64,1.18.92,1.74.14.28.27.56.39.83.03.07.06.13.09.2.01.04.03.08.04.12.03.07.05.15.08.23.83.66,2.04,1.8,3.03,3.41-.11-.51-.26-1.2-.55-2.05-.14-.42-.32-.87-.51-1.33-.11-.25-.19-.42-.28-.61-.09-.19-.19-.38-.28-.58-.38-.77-.8-1.56-1.25-2.36-.48-.8-.98-1.61-1.5-2.41-2.12-3.23-4.64-6.35-6.84-9.17-2.12-1.87-4.38-4.53-6.98-6.67-.88-.75-1.82-1.41-2.73-2.11-.46-.32-.93-.65-1.39-.97-.46-.33-.92-.63-1.38-.93-1.83-1.23-3.58-2.27-5.23-3.43-1.61-.4-3.38-1.59-5.1-2.24-1.02-.39-1.91-.54-2.88-.81-1.87-.54-3.89-1.26-5.64-1.54-1.06-.16-1.91.07-2.91-.04-1.55-.19-3.13-.55-4.53-.58-.36,0-.7,0-1.04.02-.16,0-.33.02-.49.03-.11,0-.21.01-.32.02-.21,0-.39.05-.54.11-.61.28-.62.94-.3,1.63.31.7.98,1.52,1.88,2.26.11.08.21.17.32.25.07.05.13.1.2.15.1.08.21.16.31.25.2.17.4.34.6.51.4.35.79.69,1.21,1.01,3.11,2.45,6.55,4.76,9.69,7.17.88.65,1.76,1.44,2.62,2.08,1.62,1.24,3.3,2.12,4.89,3.31,1.13.86,2.24,1.72,3.35,2.6,1.11.87,2.22,1.79,3.36,2.58,1.48,1.03,2.89,2.08,4.3,3.03.7.48,1.4.96,2.11,1.46.71.47,1.42.93,2.14,1.4.34.22.74.5,1.17.81.42.29.88.61,1.31.91.88.61,1.72,1.21,2.27,1.45,2.66,1.29,6.45,4.05,9.46,5.11.07.03.14.05.21.07h0c.61,0,1.06-.19,1.33-.34"/>
  <path class="st0" d="M141.08,210.48c.15.25.37.15.66-.32.28-.46.62-1.29.89-2.24,0-.03.02-.06.02-.08.01-.1.03-.2.04-.3.28-2.34-.04-4.87-.09-6.89-.03-.8.01-1.81.04-2.89,0-1.07-.01-2.21-.12-3.29-.1-1.08-.35-1.99-.5-2.87-.17-.87-.28-1.71-.24-2.54-.36-1.54-.71-3.09-1.11-4.6-.42-1.48-.85-2.93-1.3-4.38-.49-1.39-.98-2.77-1.49-4.14-.13-.34-.25-.68-.38-1.02-.14-.32-.28-.65-.42-.97-.28-.65-.56-1.29-.85-1.92-.28-.64-.57-1.28-.86-1.91-.29-.63-.61-1.2-.92-1.8-.62-1.18-1.25-2.35-1.89-3.51-.67-1.09-1.35-2.16-2.03-3.22-.68-1.06-1.36-2.12-2.11-3.05-1.46-1.9-2.9-3.84-4.46-5.42-.77-.82-1.54-1.64-2.31-2.43-.38-.42-.78-.75-1.18-1.11-.4-.35-.8-.7-1.19-1.05-.8-.69-1.59-1.37-2.39-2.04-.1-.08-.2-.17-.3-.25-.05-.04-.11-.09-.16-.13-.09-.07-.18-.12-.28-.18-.38-.2-.78-.26-1.15-.19-.74.16-1.38.82-1.78,1.87-.2.52-.32,1.18-.33,1.85,0,.17,0,.34.01.5,0,.08.01.16.02.25,0,.05.01.1.01.15.02.16.04.33.05.49.06.66.12,1.33.18,1.98.11,1.34.2,2.69.3,4.03.19,2.74.31,5.28.47,7.81.16,2.53.35,5.06.71,7.72.3,2.24.51,4.46.79,6.67.25,2.21.59,4.39,1.06,6.51.44,1.88,1.07,3.61,1.67,5.3.14.41.27.83.41,1.24.13.42.29.8.44,1.21.15.4.29.81.44,1.21.15.4.33.77.5,1.15.55,1.3,1.25,2.23,1.93,3.4.44.64.82,1.39,1.22,2.13.42.68.84,1.38,1.3,1.99.39.46.82.86,1.25,1.28.22.2.43.44.66.63.23.19.46.4.69.62.31.29.65.6,1.03.92.39.29.82.56,1.26.86.88.63,1.91,1.09,2.94,1.64.51.29,1.06.47,1.58.72.53.23,1.04.52,1.56.73.52.21,1.03.44,1.5.69.24.12.47.26.7.39.06.03.11.07.17.1.07.03.14.07.21.1.15.07.29.13.43.2,1.27-.47,2.02-1.35,2.72-1.55-.6-.42-1.12-.88-1.61-1.23-.25-.18-.49-.34-.74-.46-.29-.15-.58-.31-.88-.47-.61-.31-1.25-.58-1.89-.84-.63-.32-1.27-.61-1.91-.9-2.55-1.23-5.06-2.82-6.81-5.21-.44-.24-.86-.58-1.29-.97-.4-.45-.79-.96-1.19-1.5-.76-1.13-1.49-2.4-2.18-3.66-1.99-3.33-3.63-7.76-3.97-11.87-.78-1.8-.86-4.1-1.14-6.27-.11-.64-.2-1.29-.32-1.92-.13-.63-.23-1.28-.31-1.97-.31-2.6-.32-5.32-.51-7.95-.11-1.6-.5-3.31-.57-4.93-.12-2.49-.03-4.8-.22-7.28-.05-.63-.12-1.29-.2-1.94-.04-.33-.09-.66-.13-.99-.02-.13-.04-.27-.06-.41-.01-.01-.01-.02-.02-.03-.02-.03,0-.23.11-.35.11-.13.24-.16.33-.09.01.01.02.02.04.03,0,0,.07.07.1.1.08.08.16.17.24.25.16.17.32.36.47.54.31.37.62.74.94,1.06,2.48,2.29,5.09,4.74,7.4,7.58.63.82,1.21,1.84,1.82,2.64,1.18,1.46,2.36,2.82,3.44,4.48.37.61.75,1.19,1.08,1.87s.65,1.35.96,2.03c.63,1.37,1.28,2.7,1.89,4.13.81,1.82,1.6,3.54,2.25,5.44.35.93.68,1.86,1.01,2.8.31.97.61,1.96.92,2.97.15.48.3,1.06.46,1.68.13.64.28,1.32.41,1.99.27,1.34.54,2.61.74,3.42,1.14,3.84,1.48,10.41,1.58,15.67.02-.1.03-.2.05-.3-.13.83-.16,1.71-.3,2.81"/>
  <path class="st0" d="M149.32,217.39c.78-3.05-1.15-2.7-2-3.45-.39-.41-.7-1.52-1.24-2.03-.27-.25-.58-.36-.84-.52-.25-.18-.45-.43-.5-.91-3.55-2.84-6.51-6.76-9.06-11.06-2.55-4.32-4.69-9.04-6.74-13.62-.54-1.14-.93-2.33-1.39-3.44-.42-1.14-.87-2.26-1.4-3.41-.89-1.96-1.34-4.31-2.05-6.46-.32-.96-.79-1.77-1.11-2.74-.32-.91-.57-1.89-.86-2.85-.25-.79-.58-1.44-.87-2.25-.35-.95-.47-2.16-.79-3.14-.27-.79-.61-1.55-.9-2.44-.37-1.2-1.06-2.78-1.71-4.52-.65-1.73-1.27-3.62-1.5-5.34-.57-.46-1.19-.71-1.74-1.32,0,2.42.69,4.83,1.46,7.15.77,2.32,1.63,4.58,2.07,6.84.86,1.27,1.21,3.51,1.84,5.36.88,2.54,1.94,5.04,2.15,7.62.67.84.77,2.24,1.12,3.43.21.71.57,1.22.81,1.91.45,1.32.76,2.82,1.22,4.12.28.79.86,1.32,1.13,2.1.41,1.22.67,2.48,1.12,3.61.47,1.15,1.19,2.04,1.67,3.22.24.55.32,1.3.53,1.86.2.53.43,1.05.66,1.56.24.49.51.96.77,1.44.26.48.52.95.78,1.43.27.46.54.92.79,1.39.28.53.47,1.23.75,1.73.57.9,1.33,1.4,1.89,2.3.41.6.78,1.28,1.14,1.97.18.34.36.69.56,1.02.2.32.41.61.64.88.6.69,1.13,1.44,1.73,2.04.6.62,1.2,1.22,1.84,1.81.63.51,1.52,1.76,2.12,1.98.88.28,1.82,1,2.78,1.72,1,.63,2.06,1.14,3.15.99"/>
  <path class="st0" d="M108.9,271.21c.01.32.24.33.69.04.44-.28,1.1-.88,1.76-1.65.02-.02.04-.04.06-.07.05-.09.11-.17.16-.26,1.31-2.1,2.23-4.77,3.1-6.76.34-.8.83-1.75,1.34-2.78.48-1.03.98-2.15,1.37-3.27.4-1.1.6-2.13.86-3.09.25-.95.53-1.82.92-2.6.38-1.71.76-3.42,1.08-5.11.28-1.68.54-3.35.78-5.01.18-1.64.34-3.26.48-4.88.04-.4.07-.81.1-1.21.02-.4.03-.79.05-1.18.03-.79.05-1.57.07-2.35.02-.78.03-1.56.04-2.34.01-.78-.04-1.52-.06-2.27-.06-1.5-.14-3-.23-4.48-.15-1.44-.32-2.86-.5-4.28-.18-1.41-.37-2.83-.67-4.14-.56-2.66-1.09-5.34-1.9-7.73-.38-1.22-.77-2.43-1.16-3.63-.19-.61-.43-1.16-.66-1.72-.23-.56-.46-1.11-.7-1.66-.47-1.1-.95-2.19-1.43-3.27-.06-.13-.12-.27-.18-.4-.03-.07-.07-.14-.1-.21-.06-.11-.12-.21-.19-.32-.27-.4-.61-.67-.99-.79-.74-.25-1.58.03-2.34.8-.38.39-.74.94-1,1.57-.07.15-.12.31-.17.48-.03.08-.05.16-.08.24-.01.05-.03.1-.04.15-.05.17-.09.33-.14.5-.19.67-.39,1.34-.59,2-.41,1.35-.84,2.69-1.27,4.04-.88,2.73-1.75,5.25-2.58,7.78-.83,2.52-1.64,5.07-2.36,7.83-.6,2.32-1.29,4.59-1.91,6.88-.65,2.28-1.22,4.58-1.66,6.88-.36,2.06-.52,4.08-.69,6.04-.05.48-.1.95-.16,1.43-.05.47-.07.94-.12,1.41-.04.47-.08.94-.12,1.42-.03.47-.03.93-.05,1.39-.07,1.56.14,2.86.23,4.37.11.87.12,1.8.14,2.74.07.9.13,1.8.25,2.65.13.67.32,1.29.5,1.95.09.32.17.67.27.99.11.32.21.64.31.99.13.46.29.95.46,1.48.2.5.44,1.01.68,1.55.45,1.12,1.1,2.16,1.7,3.29.29.58.66,1.07.98,1.62.33.53.62,1.11.96,1.62.33.51.64,1.03.92,1.55.14.26.27.52.4.79.03.07.06.13.09.2.04.07.08.15.13.22.09.15.17.3.26.44,1.23.31,2.23-.06,2.89.19-.3-.76-.52-1.5-.76-2.14-.12-.32-.25-.62-.4-.89-.17-.32-.34-.64-.51-.97-.36-.66-.77-1.29-1.18-1.93-.37-.68-.77-1.34-1.18-2-1.56-2.69-2.96-5.68-3.42-8.99-.26-.48-.48-1.06-.67-1.68-.14-.67-.26-1.39-.37-2.13-.17-1.52-.25-3.17-.32-4.78-.31-4.35.08-9.56,1.41-13.73.06-2.18.89-4.45,1.5-6.72.16-.68.34-1.36.48-2.04.14-.68.3-1.37.5-2.07.75-2.68,1.8-5.32,2.65-7.97.53-1.61.85-3.47,1.41-5.06.85-2.47,1.82-4.64,2.6-7.12.2-.64.39-1.3.57-1.97.09-.34.17-.68.26-1.02.04-.14.07-.28.11-.43,0-.02,0-.04,0-.06,0-.06.11-.25.28-.31.16-.07.31-.02.38.11,0,.02.01.04.02.05,0,0,.04.1.06.15.04.12.09.25.13.38.08.25.16.51.23.77.15.52.29,1.04.48,1.53,1.42,3.55,2.85,7.37,3.83,11.4.24,1.15.37,2.44.6,3.56.48,2.08.98,4.08,1.26,6.3.08.8.18,1.59.2,2.42.01.84.02,1.68.03,2.51,0,1.69.02,3.35-.05,5.09-.05,2.23-.09,4.36-.33,6.58-.1,1.1-.21,2.2-.32,3.31-.15,1.13-.32,2.27-.5,3.43-.08.55-.2,1.2-.34,1.9-.16.7-.34,1.45-.52,2.18-.36,1.46-.69,2.86-.88,3.76-.75,4.41-3.43,11.01-5.82,16.21.05-.08.11-.17.17-.25-.5.74-.95,1.58-1.58,2.56"/>
  <path class="st0" d="M112.23,282.93c2.03-2.41.36-3.29.03-4.55-.12-.63.15-1.89-.05-2.72-.1-.41-.29-.71-.43-1.03-.12-.33-.16-.69.02-1.18-1.52-4.94-2.15-10.52-2.39-16.2-.22-5.7-.02-11.53.13-17.15.02-1.42.17-2.8.23-4.13.11-1.35.18-2.69.19-4.1.03-2.4.58-4.92.8-7.39.1-1.1.02-2.16.11-3.27.08-1.06.25-2.14.37-3.23.09-.9.05-1.71.12-2.65.06-1.11.41-2.34.51-3.46.07-.91.05-1.83.14-2.84.13-1.37.13-3.27.21-5.29.08-2.02.24-4.17.68-5.94-.33-.76-.79-1.33-1.05-2.22-.89,2.32-1.19,4.99-1.38,7.64-.19,2.65-.28,5.29-.75,7.7.27,1.69-.27,4.04-.44,6.17-.21,2.93-.27,5.93-1.1,8.53.25,1.19-.22,2.6-.39,3.94-.1.8,0,1.5-.06,2.31-.14,1.53-.48,3.15-.61,4.67-.08.92.19,1.77.1,2.68-.15,1.41-.44,2.78-.53,4.13-.08,1.39.16,2.66.06,4.09-.03.66-.27,1.43-.33,2.11-.05.63-.08,1.26-.11,1.89,0,.62.01,1.23.02,1.84.01.61.02,1.22.03,1.84.02.6.05,1.2.05,1.81,0,.67-.14,1.47-.13,2.12.07,1.2.47,2.15.53,3.35.07.83.07,1.7.06,2.58,0,.44-.01.88,0,1.32.02.43.07.84.12,1.24.17,1.03.27,2.07.47,3.02.2.96.41,1.91.64,2.87.27.87.4,2.62.77,3.2.56.82.97,2.09,1.39,3.38.49,1.22,1.08,2.38,1.99,2.92"/>
</svg>