<?xml version="1.0" encoding="UTF-8"?>
<svg version="1.1" xmlns="http://www.w3.org/2000/svg" width="1111" height="1521">
<path d="M0 0 C343.86 0 687.72 0 1042 0 C1042.33 4.95 1042.66 9.9 1043 15 C1049.93 15 1056.86 15 1064 15 C1064 17.31 1064 19.62 1064 22 C1066.31 22 1068.62 22 1071 22 C1071 24.97 1071 27.94 1071 31 C1074.22265625 30.95117188 1074.22265625 30.95117188 1077.4453125 30.90234375 C1080.35961862 31.01374689 1083.12917058 31.50080042 1086 32 C1086.27109212 121.8756574 1085.91283675 211.7471957 1085.28149414 312.7734375 C1085.27684365 313.51471626 1085.27219316 314.25599501 1085.26740174 315.01973676 C1085.0190794 354.60091611 1084.76122229 394.18203181 1084.49984734 433.76312688 C1084.33832643 458.22502633 1084.17905882 482.68693958 1084.02148247 507.14886475 C1084.01042633 508.86486188 1083.99937012 510.58085902 1083.98831383 512.29685615 C1083.94385373 519.19787801 1083.89940836 526.09889996 1083.85498081 532.99992203 C1083.7309453 552.26609372 1083.60658803 571.53226332 1083.48199368 590.7984314 C1083.47349666 592.11237175 1083.47349666 592.11237175 1083.46482799 593.45285636 C1083.18558023 636.62945574 1082.90237013 679.80602904 1082.6190443 722.98260182 C1082.24040108 780.68564491 1081.86517559 838.38870907 1081.4934082 896.09179688 C1081.48162103 897.9212216 1081.46983377 899.75064633 1081.45804643 901.58007106 C1081.43449762 905.23492172 1081.41094915 908.88977239 1081.38740097 912.54462305 C1081.33457364 920.7437806 1081.281744 928.94293814 1081.2289091 937.14209563 C1081.21720121 938.95899294 1081.20549366 940.77589025 1081.19378645 942.59278755 C1080.87971707 991.33406676 1080.56345338 1040.0753317 1080.24635214 1088.81659126 C1080.24080405 1089.66939524 1080.23525596 1090.52219922 1080.22953975 1091.40084574 C1080.17936865 1099.11263371 1080.12919605 1106.82442166 1080.07900669 1114.53620951 C1079.9579166 1133.14262437 1079.8370405 1151.74904058 1079.71682668 1170.35546112 C1079.70877346 1171.60184975 1079.70877346 1171.60184975 1079.70055754 1172.87341795 C1079.67893609 1176.21980224 1079.65731594 1179.56618654 1079.63569635 1182.91257085 C1079.43373082 1214.17331094 1079.2302957 1245.43404086 1079.02414305 1276.69475365 C1079.00419634 1279.7202822 1078.98425553 1282.74581079 1078.96431923 1285.77133942 C1078.95942739 1286.51360932 1078.95453554 1287.25587922 1078.94949546 1288.02064215 C1078.88265126 1298.16811779 1078.8167388 1308.31559905 1078.75166306 1318.46308617 C1078.33793041 1382.97778664 1077.83419846 1447.48920585 1077 1512 C1068.09 1512 1059.18 1512 1050 1512 C1050 1514.97 1050 1517.94 1050 1521 C1033.66241315 1521.13749726 1017.40127172 1520.90880534 1001.08471441 1520.07147574 C996.24537035 1519.82375377 991.40525991 1519.59257553 986.56518281 1519.35968864 C983.92621558 1519.23256183 981.28728305 1519.10471292 978.64838398 1518.97617924 C889.82741595 1514.65007925 800.93204374 1511.03115097 478.72313501 1507.87112693 C470.28743515 1507.8751843 461.85174925 1507.87384603 453.41604996 1507.86914062 C334.53682128 1507.80406353 215.78763897 1509.28665545 57.50188945 1514.01954087 C53.64648134 1514.14119029 49.79103589 1514.26163668 45.93559256 1514.38216402 C43.34947996 1514.46374283 40.76345023 1514.54763496 38.17741847 1514.63173091 C29.44524932 1514.90927583 20.73772835 1515.05430036 12 1515 C11.67 1511.37 11.34 1507.74 11 1504 C6.05 1504 1.1 1504 -4 1504 C-4.495 1499.05 -4.495 1499.05 -5 1494 C-8.63 1494 -12.26 1494 -16 1494 C-16 1492.35 -16 1490.7 -16 1489 C-17.11375 1489.020625 -18.2275 1489.04125 -19.375 1489.0625 C-23 1489 -23 1489 -25 1488 C-25.29159996 1410.4770603 -24.99089985 1332.95779896 -24.3125 1255.4375 C-24.30285658 1254.3288924 -24.29321316 1253.22028481 -24.28327751 1252.07808304 C-23.78653319 1195.18781688 -22.99883188 1138.30874278 -21.75390625 1081.4296875 C-21.7260143 1080.15494953 -21.69812235 1078.88021157 -21.66938519 1077.56684518 C-21.07175961 1050.33478402 -20.43581156 1023.10373977 -19.76268399 995.87344468 C-18.31532185 937.23462459 -17.64566713 878.70918236 -18.20392179 820.05687881 C-18.30827155 809.06268646 -18.40886574 798.06846092 -18.5078125 787.07421875 C-18.51958999 785.77830228 -18.53136747 784.48238582 -18.54350185 783.14719915 C-19.03739502 728.39005663 -19.05391121 673.63567081 -18.99571526 618.87663722 C-18.99100235 614.39171259 -18.98656463 609.90678771 -18.98212941 605.4218628 C-18.96391412 587.01894561 -18.9444742 568.61602975 -18.92374243 550.21311523 C-18.86254306 495.86474112 -18.82293206 441.51638079 -18.8359375 387.16796875 C-18.83621795 385.98040474 -18.8364984 384.79284072 -18.83678734 383.56928992 C-18.86196838 286.11241808 -19.6051029 188.68716046 -21.54263306 71.24897766 C-21.60386281 67.88295481 -21.6645649 64.51692311 -21.72460938 61.15087891 C-21.73866782 60.3629262 -21.75272626 59.57497349 -21.76721072 58.76314342 C-22.03410181 43.50798812 -22.07454713 28.25724419 -22 13 C-20.57778679 12.83338024 -19.15528397 12.66923142 -17.73266602 12.50610352 C-16.94054214 12.41442398 -16.14841827 12.32274445 -15.33229065 12.22828674 C-10.23385288 11.72924699 -5.1158443 11.94614901 0 12 C0 8.04 0 4.08 0 0 Z " fill="#DDDDD8" transform="translate(25,0)"/>
<path d="M0 0 C0.33 0 0.66 0 1 0 C1 4.29 1 8.58 1 13 C-2.08348282 13.7708707 -4.05237286 14.12081536 -7.109375 14.09765625 C-7.86347656 14.09443359 -8.61757813 14.09121094 -9.39453125 14.08789062 C-10.17183594 14.07951172 -10.94914063 14.07113281 -11.75 14.0625 C-12.54277344 14.05798828 -13.33554688 14.05347656 -14.15234375 14.04882812 C-16.10159508 14.03708565 -18.05080738 14.01915146 -20 14 C-19.50836384 60.31267773 -18.76512553 106.61545254 -17.74853516 152.91967773 C-17.50881642 163.85690368 -17.28260665 174.79436906 -17.06533051 185.73206329 C-16.99831599 189.08423702 -16.9295959 192.43637351 -16.86090088 195.78851318 C-15.943 241.20206746 -15.84326313 286.60608751 -15.87143064 332.02743822 C-15.87519799 338.80377898 -15.8738434 345.5801051 -15.86962891 352.35644531 C-15.84656453 390.3654422 -15.87559056 428.365637 -16.53096366 466.3697083 C-17.10014626 499.39746793 -17.1877451 532.42077103 -17.18511033 565.45294034 C-17.18541629 571.07110527 -17.19361974 576.68922223 -17.20581055 582.30737305 C-17.29534992 624.55941345 -16.70913247 666.73721871 -15.37042427 708.96817493 C-14.97665322 721.43302771 -14.67072639 733.89904101 -14.40234375 746.3671875 C-14.3615805 748.22424944 -14.32076419 750.08131021 -14.27989197 751.93836975 C-14.16367301 757.25053583 -14.05029497 762.56276026 -13.9375 767.875 C-13.782609 775.16412179 -13.62604278 782.45320221 -13.46484375 789.7421875 C-13.44587917 790.60138668 -13.4269146 791.46058586 -13.40737534 792.34582138 C-13.15500086 803.64905654 -12.81025239 814.94367307 -12.34410095 826.24041748 C-11.90921277 836.86632379 -11.68180452 847.49208493 -11.5 858.125 C-11.4801001 859.24295959 -11.4602002 860.36091919 -11.43969727 861.51275635 C-10.90954419 891.74128024 -10.68018753 921.97394093 -10.40625 952.20560741 C-10.15823063 979.54748005 -9.86853661 1006.88762165 -9.46830368 1034.22768784 C-9.18105898 1053.85198828 -8.94949019 1073.47581481 -8.78515625 1093.1015625 C-8.43449868 1134.61588577 -8.00211251 1176.11935671 -7.0625 1217.625 C-6.18705645 1256.47701485 -5.47296563 1295.33032891 -4.875 1334.1875 C-4.86399246 1334.90064 -4.85298491 1335.61377999 -4.84164381 1336.34853029 C-4.08270942 1385.56663921 -3.71121426 1434.77578373 -4 1484 C-4.33 1484 -4.66 1484 -5 1484 C-5.92658797 1475.58998095 -6.17795296 1467.25319011 -6.24609375 1458.796875 C-6.26105695 1457.394185 -6.27654034 1455.99150047 -6.29249573 1454.58882141 C-6.32641203 1451.56811175 -6.35824536 1448.54739111 -6.38842773 1445.52664185 C-6.47264873 1437.19858093 -6.57555565 1428.8707513 -6.68359375 1420.54296875 C-6.69489697 1419.66896864 -6.70620018 1418.79496853 -6.71784592 1417.89448357 C-6.9774833 1398.18739823 -7.44711155 1378.48652612 -7.93296051 1358.78394699 C-8.75652961 1325.35141835 -9.33224315 1291.9237943 -9.65820312 1258.48266602 C-9.68958467 1255.31526152 -9.72155062 1252.14786344 -9.75390625 1248.98046875 C-9.76183197 1248.19551466 -9.76975769 1247.41056057 -9.77792358 1246.60181999 C-9.92384104 1232.51747664 -10.2046048 1218.43728195 -10.50390625 1204.35546875 C-10.83605423 1188.65634675 -11.09796354 1172.9600951 -11.2109375 1157.2578125 C-11.2208736 1155.89736974 -11.2208736 1155.89736974 -11.23101044 1154.50944328 C-11.258413 1150.72011034 -11.2851339 1146.93077317 -11.31120872 1143.14143085 C-11.69533382 1087.54685155 -12.61744336 1031.96231768 -13.5625 976.375 C-13.58003798 975.3426463 -13.59757597 974.31029261 -13.61564541 973.24665546 C-14.0701478 946.49764937 -14.53141086 919.74876299 -15 893 C-16.50506852 958.82314664 -17.81482278 1024.64889575 -18.99697208 1090.47860718 C-19.06328794 1094.16884614 -19.12979541 1097.85908161 -19.19634247 1101.54931641 C-20.30027227 1162.80616747 -21.350733 1224.05640111 -21.74472046 1285.32243347 C-21.75138103 1286.35338827 -21.75804161 1287.38434307 -21.76490402 1288.44653893 C-21.77838024 1290.53815302 -21.79170934 1292.62976807 -21.80488968 1294.72138405 C-22.04053861 1331.39743933 -22.54227922 1368.07156316 -22.99132538 1404.7454834 C-23.06223605 1410.53726861 -23.13274818 1416.32905863 -23.20318604 1422.12084961 C-23.46629743 1443.74726407 -23.73178718 1465.37364821 -24 1487 C-17.07 1487 -10.14 1487 -3 1487 C-3 1491.95 -3 1496.9 -3 1502 C14.08715563 1501.5147336 31.17426378 1501.02783518 48.26131821 1500.53901863 C56.20299904 1500.31186467 64.14469326 1500.08520351 72.08642578 1499.85986328 C102.30134481 1499.00229068 132.515625 1498.14049488 162.72543907 1497.11619377 C166.40878522 1496.99157308 170.09217771 1496.86842249 173.77558899 1496.7457428 C176.23947165 1496.66359093 178.7033541 1496.58143252 181.16723633 1496.49926758 C182.38771573 1496.458602 183.60819513 1496.41793642 184.86565876 1496.37603855 C191.05833016 1496.16879994 197.25077458 1495.95667841 203.44296265 1495.73544312 C254.08587501 1493.93254737 304.72662716 1493.43868204 355.39741552 1493.02172244 C367.79818847 1492.91959839 380.19890214 1492.81095497 392.59960938 1492.70117188 C393.70394994 1492.69139726 394.80829051 1492.68162264 395.94609594 1492.67155182 C403.65287134 1492.60323507 411.3596408 1492.53427253 419.06640625 1492.46484375 C420.68703775 1492.45025529 420.68703775 1492.45025529 422.34040928 1492.43537211 C480.84154872 1491.90760514 539.30924936 1490.98496283 597.78806746 1489.26253384 C605.60907257 1489.03266149 613.43031113 1488.81117571 621.25156558 1488.58997798 C657.9936575 1487.56042027 657.9936575 1487.56042027 694.73077965 1486.37022972 C779.04099853 1483.43398082 863.47633899 1484.77598686 947.8125 1485.9375 C949.00507062 1485.95385152 949.00507062 1485.95385152 950.22173357 1485.97053337 C1020.32972181 1486.93222801 1020.32972181 1486.93222801 1052 1488 C1052 1488.99 1052 1489.98 1052 1491 C1051.30427824 1490.93107544 1050.60855648 1490.86215088 1049.89175224 1490.7911377 C1041.68776833 1490.03627166 1033.53670164 1489.80331277 1025.30126953 1489.71875 C1023.86316473 1489.70088904 1022.42506461 1489.68264839 1020.98696899 1489.6640625 C1017.90324403 1489.62502715 1014.8195037 1489.58866426 1011.73572159 1489.55444336 C1006.78615208 1489.49951377 1001.83666689 1489.43854959 996.88717651 1489.37695312 C988.97871568 1489.27924949 981.07021214 1489.18566352 973.16168201 1489.09375763 C958.39958289 1488.9220595 943.63758018 1488.74223889 928.87557983 1488.56227684 C925.46333117 1488.5206945 922.05107928 1488.47939234 918.63882446 1488.43831825 C893.04867023 1488.12990342 867.46007346 1487.76254881 841.87185669 1487.32116699 C831.19521262 1487.13810106 820.51918526 1486.9682462 809.84130859 1486.87670898 C808.97507433 1486.86927768 808.10884007 1486.86184637 807.21635628 1486.85418987 C784.43755147 1486.683758 761.6880607 1487.3939964 738.92506409 1488.14605713 C718.20121351 1488.82915756 697.48313041 1489.28287172 676.75 1489.5625 C675.37732945 1489.58111171 674.00465896 1489.59972741 672.63198853 1489.61834717 C671.95964141 1489.62745306 671.28729429 1489.63655895 670.59457302 1489.64594078 C667.28830521 1489.69076253 663.98204204 1489.73591369 660.67578125 1489.78125 C658.78047417 1489.80718735 658.78047417 1489.80718735 656.84687805 1489.83364868 C640.55942145 1490.06531323 624.28217244 1490.52311629 608 1491 C628.295 1491.495 628.295 1491.495 649 1492 C649 1492.33 649 1492.66 649 1493 C647.91124132 1493.00634791 647.91124132 1493.00634791 646.80048752 1493.01282406 C628.75932311 1493.11822242 610.71818221 1493.22707725 592.67705917 1493.33933926 C583.95089309 1493.39356305 575.22472347 1493.44678463 566.49853516 1493.49731445 C531.32167707 1493.70161296 496.14602916 1493.93767918 460.97199726 1494.44213986 C458.88187107 1494.47189122 456.79173382 1494.50070227 454.70159149 1494.52929497 C440.94566879 1494.72135474 427.19279104 1494.97927959 413.44214392 1495.40837944 C411.50288095 1495.46875782 409.56352325 1495.52606893 407.62416458 1495.58329105 C406.44952023 1495.62250896 405.27487587 1495.66172686 404.06463623 1495.70213318 C403.03543438 1495.73543448 402.00623253 1495.76873579 400.94584274 1495.80304623 C397.9115164 1496.00591586 394.98946835 1496.45093398 392 1497 C434.90214476 1499.0994332 477.81051427 1500.48654261 520.75 1501.5625 C522.64672707 1501.61011097 522.64672707 1501.61011097 524.58177185 1501.65868378 C539.47848808 1502.03215858 554.37537737 1502.39838831 569.27234268 1502.76177406 C584.68196611 1503.13809953 600.09120129 1503.52878467 615.5 1503.9375 C616.53347942 1503.96490643 616.53347942 1503.96490643 617.58783722 1503.99286652 C694.31831798 1506.03284799 771.05962229 1508.14629891 847.74407959 1511.52278137 C861.15965525 1512.10709901 874.57924605 1512.55412545 888 1513 C911.11112469 1513.77256569 934.20641519 1514.79531416 957.30395508 1515.89013672 C960.00211245 1516.01797632 962.70027362 1516.14573526 965.3984375 1516.2734375 C966.71537094 1516.33578583 968.03230438 1516.39813416 969.3891449 1516.46237183 C984.25989969 1517.16130842 999.13430859 1517.77027314 1014.01000977 1518.35351562 C1023.69026086 1518.73861907 1033.34182831 1519.2210336 1043 1520 C1043 1520.33 1043 1520.66 1043 1521 C1029.27348516 1521.15129167 1015.62745245 1520.76715059 1001.91915274 1520.07147574 C995.75826593 1519.75977144 989.59645394 1519.4670669 983.43481445 1519.17068481 C982.09594659 1519.10588158 980.7570803 1519.04104604 979.41821551 1518.97617924 C890.34440361 1514.66840617 801.20016382 1511.03288981 478.72090097 1507.87112693 C470.28641754 1507.87518463 461.85194807 1507.87384566 453.41746521 1507.86914062 C334.53776409 1507.80405974 215.78811112 1509.28664142 57.50188945 1514.01954087 C53.64648134 1514.14119029 49.79103589 1514.26163668 45.93559256 1514.38216402 C43.34947996 1514.46374283 40.76345023 1514.54763496 38.17741847 1514.63173091 C29.44524932 1514.90927583 20.73772835 1515.05430036 12 1515 C11.67 1511.37 11.34 1507.74 11 1504 C6.05 1504 1.1 1504 -4 1504 C-4.495 1499.05 -4.495 1499.05 -5 1494 C-8.63 1494 -12.26 1494 -16 1494 C-16 1492.35 -16 1490.7 -16 1489 C-17.11375 1489.020625 -18.2275 1489.04125 -19.375 1489.0625 C-23 1489 -23 1489 -25 1488 C-25.29159996 1410.4770603 -24.99089985 1332.95779896 -24.3125 1255.4375 C-24.30285658 1254.3288924 -24.29321316 1253.22028481 -24.28327751 1252.07808304 C-23.78653319 1195.18781688 -22.99883188 1138.30874278 -21.75390625 1081.4296875 C-21.7260143 1080.15494953 -21.69812235 1078.88021157 -21.66938519 1077.56684518 C-21.07175961 1050.33478402 -20.43581156 1023.10373977 -19.76268399 995.87344468 C-18.31532185 937.23462459 -17.64566713 878.70918236 -18.20392179 820.05687881 C-18.30827155 809.06268646 -18.40886574 798.06846092 -18.5078125 787.07421875 C-18.51958999 785.77830228 -18.53136747 784.48238582 -18.54350185 783.14719915 C-19.03739502 728.39005663 -19.05391121 673.63567081 -18.99571526 618.87663722 C-18.99100235 614.39171259 -18.98656463 609.90678771 -18.98212941 605.4218628 C-18.96391412 587.01894561 -18.9444742 568.61602975 -18.92374243 550.21311523 C-18.86254306 495.86474112 -18.82293206 441.51638079 -18.8359375 387.16796875 C-18.83621795 385.98040474 -18.8364984 384.79284072 -18.83678734 383.56928992 C-18.86196838 286.11241808 -19.6051029 188.68716046 -21.54263306 71.24897766 C-21.60386281 67.88295481 -21.6645649 64.51692311 -21.72460938 61.15087891 C-21.73866782 60.3629262 -21.75272626 59.57497349 -21.76721072 58.76314342 C-22.03410181 43.50798812 -22.07454713 28.25724419 -22 13 C-20.57778679 12.83338024 -19.15528397 12.66923142 -17.73266602 12.50610352 C-16.94054214 12.41442398 -16.14841827 12.32274445 -15.33229065 12.22828674 C-10.23385288 11.72924699 -5.1158443 11.94614901 0 12 C0 8.04 0 4.08 0 0 Z " fill="#C8C7C2" transform="translate(25,0)"/>
<path d="M0 0 C0.33 0 0.66 0 1 0 C1.48552409 30.12489971 1.96407691 60.24990773 2.4375 90.375 C2.45497756 91.48629272 2.47245512 92.59758545 2.4904623 93.74255371 C3.40244648 151.74417452 4.30312353 209.74368063 4.70874023 267.75146484 C4.73489763 271.41764796 4.76169113 275.08382575 4.7890625 278.75 C4.79547508 279.61973261 4.80188766 280.48946522 4.80849457 281.38555336 C4.92919916 297.0959171 5.2308213 312.8007416 5.56415367 328.50786781 C5.85739843 342.33180402 6.10643639 356.15409018 6.24609375 369.98046875 C6.25410004 370.76415014 6.26210632 371.54783154 6.27035522 372.35526085 C6.30251951 375.52473973 6.33411175 378.69422365 6.36500549 381.86371517 C6.6833462 414.50941177 7.26652289 447.14174303 8.06659317 479.77903748 C8.74183509 507.33064645 9.27701311 534.87971641 9.625 562.4375 C9.6353125 563.25344257 9.645625 564.06938515 9.65625 564.91005325 C9.77817633 574.60662879 9.89036722 584.30326934 10 594 C10.33 578.16 10.66 562.32 11 546 C11.33 546 11.66 546 12 546 C12 566.46 12 586.92 12 608 C5.07 608 -1.86 608 -9 608 C-9.09961745 563.13230191 -9.14458124 518.27203581 -8.4557972 473.40869045 C-8.39423746 469.39096138 -8.33352584 465.37322009 -8.2734375 461.35546875 C-8.26121532 460.54154474 -8.24899315 459.72762074 -8.2364006 458.88903236 C-8.05363202 446.55707289 -7.93993641 434.22570281 -7.86843109 421.89262009 C-7.47518962 354.18652276 -6.35257566 286.49929975 -5.1289258 218.80372286 C-5.06319579 215.16353326 -4.99769691 211.52333958 -4.93227768 207.88314438 C-4.02496217 157.41176733 -3.07580553 106.94121548 -1.99688029 56.47318411 C-1.93435859 53.5282141 -1.87305923 50.58322107 -1.81212044 47.63821793 C-1.71738041 43.0693724 -1.61905329 38.50061786 -1.51789594 33.93191004 C-1.48186967 32.28214848 -1.44697126 30.63236179 -1.41336322 28.98254919 C-1.21481554 19.28962441 -0.79860464 9.66566598 0 0 Z " fill="#D2D1CC" transform="translate(10,879)"/>
<path d="M0 0 C0.33 0 0.66 0 1 0 C1.1096638 73.78218553 0.86157136 147.557175 0.36674622 221.33766998 C0.29240601 232.42258195 0.21987942 243.50750446 0.14878845 254.59243774 C0.14390893 255.35314041 0.1390294 256.11384307 0.13400201 256.89759733 C0.10910384 260.78025104 0.0842308 264.66290492 0.05936658 268.54555885 C-0.11806864 296.24493908 -0.29885079 323.94429658 -0.48156738 351.64364243 C-0.66186557 378.977934 -0.84063303 406.31223494 -1.01745605 433.64654922 C-1.02299851 434.50323008 -1.02854096 435.35991093 -1.03425137 436.24255181 C-1.08489067 444.06983849 -1.1355118 451.89712529 -1.1861112 459.72441222 C-1.31175763 479.16078971 -1.43763097 498.59716572 -1.56365967 518.03354073 C-1.56939131 518.91751278 -1.57512295 519.80148484 -1.58102827 520.71224393 C-1.85818499 563.45417065 -2.13795966 606.19608017 -2.41796875 648.93798828 C-2.5148352 663.72436508 -2.6116899 678.51074195 -2.70849609 693.29711914 C-2.71450207 694.21448236 -2.72050804 695.13184557 -2.72669602 696.07700767 C-3.00718594 738.92199798 -3.2857858 781.76700052 -3.56391454 824.61200621 C-3.58202603 827.40202852 -3.60013833 830.19205083 -3.61825079 832.98207313 C-3.73830664 851.47553748 -3.85833029 869.96900203 -3.97833239 888.46246673 C-4.21699825 925.24310295 -4.45585308 962.02373795 -4.69483822 998.8043721 C-4.70621295 1000.55498243 -4.71758755 1002.30559276 -4.72896201 1004.05620309 C-5.23939613 1082.61544264 -5.75202549 1161.1746678 -6.265625 1239.73388672 C-6.27042241 1240.46769156 -6.27521982 1241.2014964 -6.2801626 1241.95753774 C-6.51997317 1278.63835938 -6.75991001 1315.31918019 -7 1352 C-7.33 1352 -7.66 1352 -8 1352 C-8.29302288 1248.17773123 -8.57543591 1144.35542938 -9.12283063 848.02360237 C-9.12405792 841.2305968 -9.12769793 834.43759612 -9.13256836 827.64459229 C-9.15646229 792.06509791 -9.07493452 756.48864417 -8.75756836 720.91040039 C-8.66133299 710.01449658 -8.56579663 699.11858699 -8.47265625 688.22265625 C-8.46364766 687.17023207 -8.46364766 687.17023207 -8.45445707 686.0965468 C-8.01717416 634.83405199 -7.97340988 583.57712231 -8.09308387 532.3130792 C-8.11622033 522.30863958 -8.13481227 512.3041929 -8.15306768 502.29974337 C-8.1698593 493.14579144 -8.18749604 483.99184107 -8.20507812 474.83789062 C-8.2070174 473.82312164 -8.20895668 472.80835265 -8.21095473 471.76283309 C-8.25426172 449.18202975 -8.30483777 426.60130979 -8.38668166 404.02060993 C-8.47840308 378.63746798 -8.5402429 353.25440806 -8.55078125 327.87109375 C-8.55146165 326.37420325 -8.55146165 326.37420325 -8.55215579 324.84707254 C-8.58578924 232.49174177 -5.73568142 140.27172353 -2 48 C-1.97203986 47.30841645 -1.94407972 46.61683291 -1.9152723 45.90429229 C-1.29644419 30.60202498 -0.66303071 15.30041869 0 0 Z " fill="#D1D1D1" transform="translate(1110,73)"/>
<path d="M0 0 C0.33 0 0.66 0 1 0 C1 4.29 1 8.58 1 13 C-2.08348282 13.7708707 -4.05237286 14.12081536 -7.109375 14.09765625 C-7.86347656 14.09443359 -8.61757813 14.09121094 -9.39453125 14.08789062 C-10.17183594 14.07951172 -10.94914063 14.07113281 -11.75 14.0625 C-12.54277344 14.05798828 -13.33554688 14.05347656 -14.15234375 14.04882812 C-16.10159508 14.03708565 -18.05080738 14.01915146 -20 14 C-19.50836384 60.31267773 -18.76512553 106.61545254 -17.74853516 152.91967773 C-17.50881642 163.85690368 -17.28260665 174.79436906 -17.06533051 185.73206329 C-16.99831599 189.08423702 -16.9295959 192.43637351 -16.86090088 195.78851318 C-15.943 241.20206746 -15.84326313 286.60608751 -15.87143064 332.02743822 C-15.87519799 338.80377898 -15.8738434 345.5801051 -15.86962891 352.35644531 C-15.84656453 390.3654422 -15.87559056 428.365637 -16.53096366 466.3697083 C-17.10014626 499.39746793 -17.1877451 532.42077103 -17.18511033 565.45294034 C-17.18541629 571.07110527 -17.19361974 576.68922223 -17.20581055 582.30737305 C-17.29534992 624.55941345 -16.70913247 666.73721871 -15.37042427 708.96817493 C-14.97665322 721.43302771 -14.67072639 733.89904101 -14.40234375 746.3671875 C-14.3615805 748.22424944 -14.32076419 750.08131021 -14.27989197 751.93836975 C-14.16367301 757.25053583 -14.05029497 762.56276026 -13.9375 767.875 C-13.782609 775.16412179 -13.62604278 782.45320221 -13.46484375 789.7421875 C-13.44587917 790.60138668 -13.4269146 791.46058586 -13.40737534 792.34582138 C-13.15500086 803.64905654 -12.81025239 814.94367307 -12.34410095 826.24041748 C-11.90921277 836.86632379 -11.68180452 847.49208493 -11.5 858.125 C-11.4801001 859.24295959 -11.4602002 860.36091919 -11.43969727 861.51275635 C-10.90954419 891.74128024 -10.68018753 921.97394093 -10.40625 952.20560741 C-10.15823063 979.54748005 -9.86853661 1006.88762165 -9.46830368 1034.22768784 C-9.18105898 1053.85198828 -8.94949019 1073.47581481 -8.78515625 1093.1015625 C-8.43449868 1134.61588577 -8.00211251 1176.11935671 -7.0625 1217.625 C-6.18705645 1256.47701485 -5.47296563 1295.33032891 -4.875 1334.1875 C-4.86399246 1334.90064 -4.85298491 1335.61377999 -4.84164381 1336.34853029 C-4.08270942 1385.56663921 -3.71121426 1434.77578373 -4 1484 C-4.33 1484 -4.66 1484 -5 1484 C-5.92658797 1475.58998095 -6.17795296 1467.25319011 -6.24609375 1458.796875 C-6.26105695 1457.394185 -6.27654034 1455.99150047 -6.29249573 1454.58882141 C-6.32641203 1451.56811175 -6.35824536 1448.54739111 -6.38842773 1445.52664185 C-6.47264873 1437.19858093 -6.57555565 1428.8707513 -6.68359375 1420.54296875 C-6.69489697 1419.66896864 -6.70620018 1418.79496853 -6.71784592 1417.89448357 C-6.9774833 1398.18739823 -7.44711155 1378.48652612 -7.93296051 1358.78394699 C-8.75652961 1325.35141835 -9.33224315 1291.9237943 -9.65820312 1258.48266602 C-9.68958467 1255.31526152 -9.72155062 1252.14786344 -9.75390625 1248.98046875 C-9.76183197 1248.19551466 -9.76975769 1247.41056057 -9.77792358 1246.60181999 C-9.92384104 1232.51747664 -10.2046048 1218.43728195 -10.50390625 1204.35546875 C-10.83605423 1188.65634675 -11.09796354 1172.9600951 -11.2109375 1157.2578125 C-11.2208736 1155.89736974 -11.2208736 1155.89736974 -11.23101044 1154.50944328 C-11.258413 1150.72011034 -11.2851339 1146.93077317 -11.31120872 1143.14143085 C-11.69533382 1087.54685155 -12.61744336 1031.96231768 -13.5625 976.375 C-13.58003798 975.3426463 -13.59757597 974.31029261 -13.61564541 973.24665546 C-14.0701478 946.49764937 -14.53141086 919.74876299 -15 893 C-16.50506852 958.82314664 -17.81482278 1024.64889575 -18.99697208 1090.47860718 C-19.06328794 1094.16884614 -19.12979541 1097.85908161 -19.19634247 1101.54931641 C-20.30027227 1162.80616747 -21.350733 1224.05640111 -21.74472046 1285.32243347 C-21.75138103 1286.35338827 -21.75804161 1287.38434307 -21.76490402 1288.44653893 C-21.77838024 1290.53815302 -21.79170934 1292.62976807 -21.80488968 1294.72138405 C-22.04053861 1331.39743933 -22.54227922 1368.07156316 -22.99132538 1404.7454834 C-23.06223605 1410.53726861 -23.13274818 1416.32905863 -23.20318604 1422.12084961 C-23.46629743 1443.74726407 -23.73178718 1465.37364821 -24 1487 C-17.07 1487 -10.14 1487 -3 1487 C-3 1491.95 -3 1496.9 -3 1502 C-0.54778015 1501.92483154 -0.54778015 1501.92483154 1.95397949 1501.84814453 C17.59678466 1501.36960971 33.23980567 1500.89886278 48.88306427 1500.43539429 C56.91939764 1500.19711236 64.95563868 1499.9563099 72.99169922 1499.70898438 C110.00298983 1498.57131775 146.96562746 1497.63897353 184 1498 C184 1498.33 184 1498.66 184 1499 C176.59357271 1499.85283117 169.22766213 1500.24552858 161.77783203 1500.46484375 C160.59549484 1500.50239777 159.41315765 1500.53995178 158.19499207 1500.5786438 C154.97226604 1500.68031614 151.749465 1500.77895481 148.52660227 1500.87617874 C145.10676052 1500.98005731 141.6870403 1501.08780099 138.26730347 1501.19506836 C132.49923399 1501.37546628 126.73109217 1501.55336967 120.96289062 1501.72949219 C115.11745443 1501.90797595 109.27207455 1502.08815233 103.42675781 1502.27050781 C102.35730592 1502.30386986 102.35730592 1502.30386986 101.26624894 1502.33790588 C99.83170078 1502.38266929 98.3971528 1502.42743856 96.962605 1502.47221375 C83.90356683 1502.87971199 70.84429676 1503.27869574 57.78479385 1503.67102051 C51.22093116 1503.86903842 44.65741764 1504.07422144 38.09424782 1504.29402161 C34.7565739 1504.40520185 31.41874833 1504.51116502 28.08086777 1504.61593628 C26.64876576 1504.66223319 25.21674048 1504.71099754 23.78482437 1504.76272583 C14.43495795 1505.09985564 5.31419631 1504.77569358 -4 1504 C-4.495 1499.05 -4.495 1499.05 -5 1494 C-8.63 1494 -12.26 1494 -16 1494 C-16 1492.35 -16 1490.7 -16 1489 C-17.11375 1489.020625 -18.2275 1489.04125 -19.375 1489.0625 C-23 1489 -23 1489 -25 1488 C-25.29159996 1410.4770603 -24.99089985 1332.95779896 -24.3125 1255.4375 C-24.30285658 1254.3288924 -24.29321316 1253.22028481 -24.28327751 1252.07808304 C-23.78653319 1195.18781688 -22.99883188 1138.30874278 -21.75390625 1081.4296875 C-21.7260143 1080.15494953 -21.69812235 1078.88021157 -21.66938519 1077.56684518 C-21.07175961 1050.33478402 -20.43581156 1023.10373977 -19.76268399 995.87344468 C-18.31532185 937.23462459 -17.64566713 878.70918236 -18.20392179 820.05687881 C-18.30827155 809.06268646 -18.40886574 798.06846092 -18.5078125 787.07421875 C-18.51958999 785.77830228 -18.53136747 784.48238582 -18.54350185 783.14719915 C-19.03739502 728.39005663 -19.05391121 673.63567081 -18.99571526 618.87663722 C-18.99100235 614.39171259 -18.98656463 609.90678771 -18.98212941 605.4218628 C-18.96391412 587.01894561 -18.9444742 568.61602975 -18.92374243 550.21311523 C-18.86254306 495.86474112 -18.82293206 441.51638079 -18.8359375 387.16796875 C-18.83621795 385.98040474 -18.8364984 384.79284072 -18.83678734 383.56928992 C-18.86196838 286.11241808 -19.6051029 188.68716046 -21.54263306 71.24897766 C-21.60386281 67.88295481 -21.6645649 64.51692311 -21.72460938 61.15087891 C-21.73866782 60.3629262 -21.75272626 59.57497349 -21.76721072 58.76314342 C-22.03410181 43.50798812 -22.07454713 28.25724419 -22 13 C-20.57778679 12.83338024 -19.15528397 12.66923142 -17.73266602 12.50610352 C-16.94054214 12.41442398 -16.14841827 12.32274445 -15.33229065 12.22828674 C-10.23385288 11.72924699 -5.1158443 11.94614901 0 12 C0 8.04 0 4.08 0 0 Z " fill="#4C4C4A" transform="translate(25,0)"/>
<path d="M0 0 C0.33 0 0.66 0 1 0 C3.1199809 59.40247242 4.05536331 118.77920896 4.59403324 178.21552086 C4.8418108 205.55409143 5.13151175 232.8909256 5.53169632 260.22768784 C5.81894102 279.85198828 6.05050981 299.47581481 6.21484375 319.1015625 C6.56550132 360.61588577 6.99788749 402.11935671 7.9375 443.625 C8.81294355 482.47701485 9.52703437 521.33032891 10.125 560.1875 C10.13600754 560.90064 10.14701509 561.61377999 10.15835619 562.34853029 C10.91729058 611.56663921 11.28878574 660.77578373 11 710 C10.67 710 10.34 710 10 710 C9.07341203 701.58998095 8.82204704 693.25319011 8.75390625 684.796875 C8.73894305 683.394185 8.72345966 681.99150047 8.70750427 680.58882141 C8.67358797 677.56811175 8.64175464 674.54739111 8.61157227 671.52664185 C8.52735127 663.19858093 8.42444435 654.8707513 8.31640625 646.54296875 C8.30510303 645.66896864 8.29379982 644.79496853 8.28215408 643.89448357 C8.0225167 624.18739823 7.55288845 604.48652612 7.06703949 584.78394699 C6.24347039 551.35141835 5.66775685 517.9237943 5.34179688 484.48266602 C5.31041533 481.31526152 5.27844938 478.14786344 5.24609375 474.98046875 C5.23816803 474.19551466 5.23024231 473.41056057 5.22207642 472.60181999 C5.07615896 458.51747664 4.7953952 444.43728195 4.49609375 430.35546875 C4.16394577 414.65634675 3.90203646 398.9600951 3.7890625 383.2578125 C3.78243843 382.35085066 3.77581436 381.44388882 3.76898956 380.50944328 C3.741587 376.72011034 3.7148661 372.93077317 3.68879128 369.14143085 C3.30466618 313.54685155 2.38255664 257.96231768 1.4375 202.375 C1.41996202 201.3426463 1.40242403 200.31029261 1.38435459 199.24665546 C0.9298522 172.49764937 0.46858914 145.74876299 0 119 C-0.33 119 -0.66 119 -1 119 C-1.13265251 89.78583543 -0.94666581 60.58533435 -0.5 31.375 C-0.48804218 30.59271152 -0.47608437 29.81042305 -0.46376419 29.00442886 C-0.31540727 19.33618288 -0.16076582 9.66804788 0 0 Z " fill="#737067" transform="translate(10,774)"/>
<path d="M0 0 C0.79504708 0.01090101 1.59009416 0.02180202 2.40923357 0.03303337 C72.51722181 0.99472801 72.51722181 0.99472801 104.1875 2.0625 C104.1875 3.0525 104.1875 4.0425 104.1875 5.0625 C103.14391736 4.95911316 103.14391736 4.95911316 102.07925224 4.8536377 C93.87526833 4.09877166 85.72420164 3.86581277 77.48876953 3.78125 C76.05066473 3.76338904 74.61256461 3.74514839 73.17446899 3.7265625 C70.09074403 3.68752715 67.0070037 3.65116426 63.92322159 3.61694336 C58.97365208 3.56201377 54.02416689 3.50104959 49.07467651 3.43945312 C41.16621568 3.34174949 33.25771214 3.24816352 25.34918201 3.15625763 C10.58708289 2.9845595 -4.17491982 2.80473889 -18.93692017 2.62477684 C-22.34916883 2.5831945 -25.76142072 2.54189234 -29.17367554 2.50081825 C-54.76382977 2.19240342 -80.35242654 1.82504881 -105.94064331 1.38366699 C-116.61728738 1.20060106 -127.29331474 1.0307462 -137.97119141 0.93920898 C-138.83742567 0.93177768 -139.70365993 0.92434637 -140.59614372 0.91668987 C-163.37494853 0.746258 -186.1244393 1.4564964 -208.88743591 2.20855713 C-229.61128649 2.89165756 -250.32936959 3.34537172 -271.0625 3.625 C-272.43517055 3.64361171 -273.80784104 3.66222741 -275.18051147 3.68084717 C-275.85285859 3.68995306 -276.52520571 3.69905895 -277.21792698 3.70844078 C-280.52419479 3.75326253 -283.83045796 3.79841369 -287.13671875 3.84375 C-288.40025681 3.86104156 -289.66379486 3.87833313 -290.96562195 3.89614868 C-307.25307855 4.12781323 -323.53032756 4.58561629 -339.8125 5.0625 C-319.5175 5.5575 -319.5175 5.5575 -298.8125 6.0625 C-298.8125 6.3925 -298.8125 6.7225 -298.8125 7.0625 C-299.4618303 7.06581015 -300.1111606 7.06912029 -300.78016758 7.07253075 C-377.3146064 7.46472233 -453.84615254 7.97138836 -530.375 9 C-531.55309628 9.01578315 -531.55309628 9.01578315 -532.75499249 9.03188515 C-566.36165076 9.48234843 -599.96698814 9.97924283 -633.5703125 10.63671875 C-635.36219781 10.67170754 -635.36219781 10.67170754 -637.19028282 10.70740318 C-648.14287271 10.92221966 -659.09528435 11.14289062 -670.04724026 11.38805676 C-699.63859188 12.04812138 -729.21417162 12.16711641 -758.8125 12.0625 C-758.8125 11.7325 -758.8125 11.4025 -758.8125 11.0625 C-752.576834 10.00567682 -746.39370039 9.76626231 -740.07836914 9.56469727 C-738.88317343 9.52457708 -737.68797771 9.4844569 -736.45656395 9.44312096 C-732.39960487 9.31090983 -728.34246438 9.18729318 -724.28515625 9.06640625 C-723.57181665 9.04481296 -722.85847704 9.02321967 -722.12352109 9.00097203 C-678.8986717 7.69628119 -635.6559403 7.4400363 -592.41513503 7.08422339 C-580.01434524 6.98209724 -567.61361471 6.87345512 -555.21289062 6.76367188 C-554.10855006 6.75389726 -553.00420949 6.74412264 -551.86640406 6.73405182 C-544.15962866 6.66573507 -536.4528592 6.59677253 -528.74609375 6.52734375 C-527.66567275 6.51761811 -526.58525175 6.50789247 -525.47209072 6.49787211 C-466.97095128 5.97010514 -408.50325064 5.04746283 -350.02443254 3.32503384 C-342.20342743 3.09516149 -334.38218887 2.87367571 -326.56093442 2.65247798 C-289.8188425 1.62292027 -289.8188425 1.62292027 -253.08172035 0.43272972 C-168.77150147 -2.50351918 -84.33616101 -1.16151314 0 0 Z " fill="#B0AEA6" transform="translate(972.8125,1485.9375)"/>
<path d="M0 0 C156.75 0 313.5 0 475 0 C475 0.33 475 0.66 475 1 C457.15584107 1.40051619 439.31150294 1.79179263 421.46693134 2.17345428 C413.17227801 2.35105364 404.8776977 2.5311996 396.58325195 2.71826172 C327.89000135 4.26417177 259.29236231 4.13078158 190.59182018 3.1672821 C175.96107011 2.96251949 161.33012032 2.77222724 146.69920349 2.57982635 C143.2607139 2.5345935 139.82222734 2.48914067 136.38374329 2.44348907 C104.63138331 2.02209811 72.87878609 1.6721158 41.125 1.375 C40.0359499 1.36475422 38.9468998 1.35450844 37.82484818 1.34395218 C25.21659986 1.22537062 12.60832624 1.10999018 0 1 C0 0.67 0 0.34 0 0 Z " fill="#B2B2B0" transform="translate(234,0)"/>
<path d="M0 0 C27.26081443 -0.24585624 54.47038891 0.42653852 81.71661377 1.27410889 C86.07107349 1.40791169 90.42571394 1.53518506 94.7803669 1.66251659 C117.98794146 2.34363843 141.17991456 3.17847386 164.37033081 4.30345154 C177.20605121 4.9259903 190.04149925 5.4269859 202.88601685 5.83398438 C227.70118744 6.62705979 252.49745606 7.71461242 277.29663086 8.88989258 C279.99722925 9.01782175 282.69783216 9.1456552 285.3984375 9.2734375 C286.715522 9.33579086 288.03260651 9.39814423 289.38960266 9.46238708 C304.26020374 10.16134008 319.13446131 10.77027913 334.01000977 11.35351562 C343.69026086 11.73861907 353.34182831 12.2210336 363 13 C363 13.33 363 13.66 363 14 C346.60264176 14.19130903 330.24503073 13.62836969 313.86288691 13.00014317 C309.9828562 12.85219206 306.10266232 12.70863593 302.2224884 12.5644989 C294.6484326 12.28247628 287.0745299 11.99653135 279.50067236 11.70923907 C270.65384292 11.37383051 261.80685984 11.04256164 252.95986788 10.71147233 C237.15770221 10.11996929 221.35566838 9.52501635 205.55371094 8.92797852 C190.27156642 8.35058571 174.98934661 7.77524622 159.70703125 7.20239258 C158.29533289 7.14947476 158.29533289 7.14947476 156.85511537 7.0954879 C153.0704055 6.95362171 149.28569548 6.81175937 145.50098518 6.66990465 C129.9824417 6.08819569 114.46396019 5.50483645 98.9454875 4.92124248 C95.42741873 4.78894534 91.90934745 4.65671503 88.39127398 4.52454305 C79.14290384 4.17706208 69.89455468 3.82903757 60.64626338 3.47946388 C56.82781178 3.33513526 53.00935166 3.19104617 49.19086266 3.04771042 C32.79066472 2.43186809 16.39334305 1.77995226 0 1 C0 0.67 0 0.34 0 0 Z " fill="#434340" transform="translate(705,1507)"/>
<path d="M0 0 C0 0.33 0 0.66 0 1 C-25.52185165 1.69871047 -51.04518499 2.14371837 -76.57421875 2.46484375 C-77.70002267 2.47905255 -77.70002267 2.47905255 -78.84857011 2.49354839 C-87.51363958 2.60282053 -96.1787352 2.70992123 -104.84384155 2.81622314 C-121.62515867 3.02222057 -138.406372 3.23617065 -155.1875 3.45703125 C-156.02266388 3.46801 -156.85782775 3.47898874 -157.71829963 3.49030018 C-180.20944814 3.78670345 -202.69874419 4.12927534 -225.1875 4.57421875 C-226.96017211 4.60920754 -226.96017211 4.60920754 -228.76865578 4.64490318 C-239.58057241 4.85956877 -250.39224571 5.08346099 -261.20358372 5.32555676 C-290.80533726 5.98487761 -320.39128279 6.10465313 -350 6 C-350 5.67 -350 5.34 -350 5 C-343.76066747 3.94198312 -337.57401458 3.70476533 -331.25488281 3.50439453 C-330.05884682 3.46444241 -328.86281082 3.42449028 -327.63053131 3.38332748 C-323.57157005 3.25160375 -319.51242895 3.12837805 -315.453125 3.0078125 C-314.3826453 2.97551662 -314.3826453 2.97551662 -313.29053974 2.9425683 C-270.16638827 1.64494274 -227.02529312 1.34159335 -183.88534403 0.96518159 C-176.01059398 0.89608919 -168.13590418 0.82191375 -160.26123047 0.74462891 C-106.83968772 0.2205227 -53.424299 -0.15696549 0 0 Z " fill="#615F57" transform="translate(564,1492)"/>
<path d="M0 0 C0.33 0 0.66 0 1 0 C1 4.95 1 9.9 1 15 C7.93 15 14.86 15 22 15 C22 19.95 22 24.9 22 30 C23.63481323 29.9498877 25.26962646 29.89977539 26.95397949 29.84814453 C42.59678466 29.36960971 58.23980567 28.89886278 73.88306427 28.43539429 C81.91939764 28.19711236 89.95563868 27.9563099 97.99169922 27.70898438 C135.00298983 26.57131775 171.96562746 25.63897353 209 26 C209 26.33 209 26.66 209 27 C201.59357271 27.85283117 194.22766213 28.24552858 186.77783203 28.46484375 C185.59549484 28.50239777 184.41315765 28.53995178 183.19499207 28.5786438 C179.97226604 28.68031614 176.749465 28.77895481 173.52660227 28.87617874 C170.10676052 28.98005731 166.6870403 29.08780099 163.26730347 29.19506836 C157.49923399 29.37546628 151.73109217 29.55336967 145.96289062 29.72949219 C140.11745443 29.90797595 134.27207455 30.08815233 128.42675781 30.27050781 C127.71378989 30.29274918 127.00082196 30.31499054 126.26624894 30.33790588 C124.83170078 30.38266929 123.3971528 30.42743856 121.962605 30.47221375 C108.90356683 30.87971199 95.84429676 31.27869574 82.78479385 31.67102051 C76.22093116 31.86903842 69.65741764 32.07422144 63.09424782 32.29402161 C59.7565739 32.40520185 56.41874833 32.51116502 53.08086777 32.61593628 C51.64876576 32.66223319 50.21674048 32.71099754 48.78482437 32.76272583 C39.43495795 33.09985564 30.31419631 32.77569358 21 32 C20.505 27.05 20.505 27.05 20 22 C16.37 22 12.74 22 9 22 C9 20.35 9 18.7 9 17 C7.88625 17.020625 6.7725 17.04125 5.625 17.0625 C2 17 2 17 0 16 C0 10.72 0 5.44 0 0 Z " fill="#5C5952" transform="translate(0,1472)"/>
<path d="M0 0 C0.33 0 0.66 0 1 0 C3.86820585 80.3679502 4.38450065 160.59657182 3 241 C2.67 241 2.34 241 2 241 C1.34 200.74 0.68 160.48 0 119 C-0.33 119 -0.66 119 -1 119 C-1.13265251 89.78583543 -0.94666581 60.58533435 -0.5 31.375 C-0.48804218 30.59271152 -0.47608437 29.81042305 -0.46376419 29.00442886 C-0.31540727 19.33618288 -0.16076582 9.66804788 0 0 Z " fill="#807D74" transform="translate(10,774)"/>
<path d="M0 0 C0 0.33 0 0.66 0 1 C-1.98 1.33 -3.96 1.66 -6 2 C0.93 2.33 7.86 2.66 15 3 C15 3.33 15 3.66 15 4 C8.9392119 4.02511643 2.87845548 4.04305232 -3.18237305 4.05493164 C-5.2351128 4.05989498 -7.28784916 4.06666782 -9.34057617 4.07543945 C-20.3301579 4.12115095 -31.26007447 4.02151924 -42.23143005 3.36381531 C-50.28172822 2.89232511 -58.31299647 2.84735208 -66.375 2.875 C-67.58150208 2.87682785 -67.58150208 2.87682785 -68.81237793 2.87869263 C-82.51783844 2.90240278 -96.21339678 3.15860443 -109.91409302 3.50482178 C-123.6203726 3.85094692 -137.32572054 4.08550014 -151.03515625 4.25390625 C-151.86710636 4.26426847 -152.69905647 4.2746307 -153.55621719 4.28530693 C-161.97776624 4.39014664 -170.39933386 4.49104927 -178.82106113 4.58051205 C-181.99812107 4.61512643 -185.17513143 4.65333445 -188.35214043 4.69231987 C-189.84125374 4.70972589 -191.33038715 4.72550065 -192.81953621 4.73951912 C-199.95228655 4.80702353 -206.93059651 4.99483217 -214 6 C-216.63799294 6.14043246 -219.25922812 6.25171975 -221.8984375 6.31640625 C-223.00977051 6.34764587 -223.00977051 6.34764587 -224.14355469 6.3795166 C-226.55393877 6.44524752 -228.96442198 6.50434735 -231.375 6.5625 C-232.19993958 6.58367889 -233.02487915 6.60485779 -233.87481689 6.62667847 C-251.25054464 7.06886699 -268.61989783 7.10953138 -286 7 C-286 6.67 -286 6.34 -286 6 C-255.31 5.01 -255.31 5.01 -224 4 C-230.93 3.505 -230.93 3.505 -238 3 C-238 2.67 -238 2.34 -238 2 C-237.21616943 2.00444122 -236.43233887 2.00888245 -235.62475586 2.01345825 C-225.08320926 2.06996991 -214.54167538 2.10456306 -204 2.125 C-202.67874367 2.12756805 -202.67874367 2.12756805 -201.33079529 2.13018799 C-168.62669697 2.18588582 -135.94604577 1.69353725 -103.25 1 C-94.44274759 0.8131836 -85.6354906 0.62672955 -76.828125 0.4453125 C-75.7804747 0.42373077 -74.7328244 0.40214905 -73.65342712 0.37991333 C-49.10112396 -0.11967768 -24.55679472 -0.24243494 0 0 Z " fill="#A29F95" transform="translate(423,1495)"/>
<path d="M0 0 C1.06036091 0.03768242 1.06036091 0.03768242 2.14214325 0.0761261 C3.69964757 0.13362293 5.25682639 0.20049368 6.813591 0.27539062 C10.27411316 0.44096047 13.73585477 0.55962737 17.19813919 0.68179321 C19.09685937 0.74916801 20.9954978 0.8188801 22.89405441 0.89071655 C33.76162044 1.2953639 44.63181179 1.47332691 55.50508118 1.64956665 C60.23370485 1.72681974 64.96220731 1.81052027 69.69072723 1.8938446 C78.18617662 2.04322712 86.68169639 2.18847846 95.17724609 2.33203125 C101.20694325 2.4340849 107.23657595 2.53942998 113.26618195 2.64672852 C115.52240109 2.68623633 117.7786419 2.72453007 120.03490448 2.76147461 C133.39008285 2.9803825 146.70512862 3.39447597 160.03808594 4.20703125 C160.03808594 4.53703125 160.03808594 4.86703125 160.03808594 5.20703125 C138.77603897 5.23039814 117.51399412 5.24802907 96.25193691 5.25884342 C86.37946074 5.26399831 76.50699254 5.27102567 66.63452148 5.2824707 C58.02905095 5.29244216 49.4235862 5.29889055 40.81811005 5.30111974 C36.26217531 5.30242266 31.70625711 5.30548206 27.15032768 5.31276131 C22.86010445 5.31956033 18.56990454 5.3216403 14.27967644 5.32013893 C12.70714694 5.32041351 11.13461665 5.32239557 9.56209183 5.32623672 C7.41001344 5.33123466 5.25802231 5.33000715 3.10594177 5.32728577 C1.90300193 5.32820756 0.70006208 5.32912935 -0.53933048 5.33007908 C-4.0749848 5.20296616 -7.4711318 4.76916635 -10.96191406 4.20703125 C-7.58506244 -0.08084196 -5.3349466 -0.23948882 0 0 Z " fill="#DAD9D4" transform="translate(529.9619140625,1502.79296875)"/>
<path d="M0 0 C53.04338983 -0.31901338 106.06920301 0.17151312 159.10668516 0.90372944 C162.36293401 0.94850698 165.61919203 0.99259632 168.87544996 1.03670812 C238.10731749 1.97570514 238.10731749 1.97570514 268 3 C268 3.99 268 4.98 268 6 C266.95641736 5.89661316 266.95641736 5.89661316 265.89175224 5.7911377 C257.68776833 5.03627166 249.53670164 4.80331277 241.30126953 4.71875 C239.86316473 4.70088904 238.42506461 4.68264839 236.98696899 4.6640625 C233.90324403 4.62502715 230.8195037 4.58866426 227.73572159 4.55444336 C222.78615208 4.49951377 217.83666689 4.43854959 212.88717651 4.37695312 C204.97871568 4.27924949 197.07021214 4.18566352 189.16168201 4.09375763 C173.54643864 3.91213657 157.93130037 3.72161319 142.31616259 3.53116155 C139.75684127 3.49998817 137.1975183 3.46895388 134.63819504 3.4379406 C111.54455819 3.1576264 88.45173189 2.84413383 65.359375 2.47265625 C64.11113071 2.45282181 62.86288643 2.43298737 61.57681656 2.41255188 C41.04720509 2.08393494 20.52282374 1.62220688 0 1 C0 0.67 0 0.34 0 0 Z " fill="#AEABA2" transform="translate(809,1485)"/>
<path d="M0 0 C3.54164684 -0.03031433 7.08325899 -0.04721505 10.625 -0.0625 C12.06552734 -0.07506836 12.06552734 -0.07506836 13.53515625 -0.08789062 C20.34297741 -0.10957158 27.10895641 0.126306 33.90698242 0.46337891 C46.22975956 1.04661017 58.55441904 1.37847076 70.88671875 1.68359375 C73.2524618 1.74379168 75.61819959 1.80419645 77.9839325 1.86479187 C82.97491477 1.99224879 87.96592729 2.11840981 92.95697021 2.24346924 C100.76970946 2.43925881 108.58237132 2.63801713 116.39501953 2.83740234 C119.01965323 2.90436142 121.64428702 2.97131699 124.2689209 3.03826904 C125.5644136 3.07131889 126.85990631 3.10436874 128.19465637 3.1384201 C132.10653131 3.23810924 136.01841347 3.33751075 139.93029785 3.43682861 C160.6474462 3.96309434 181.36409456 4.50660219 202.08044434 5.06335068 C205.84724478 5.16455576 209.61405266 5.2654835 213.38085938 5.36645508 C217.53921757 5.47795015 221.69757452 5.58949135 225.85592651 5.70121765 C237.4663489 6.01304295 249.0768884 6.32030835 260.6875 6.625 C261.47396912 6.64564514 262.26043823 6.66629028 263.07073975 6.68756104 C267.04715451 6.79191103 271.02357397 6.8960798 275 7 C275 7.33 275 7.66 275 8 C263.08623752 9.24240354 251.32052183 9.22951506 239.38378906 8.5168457 C229.57092648 7.96965441 219.76651752 7.77450968 209.94042969 7.64560699 C204.55748454 7.57402904 199.17476352 7.4875328 193.79199219 7.40405273 C192.65546959 7.38674166 191.51894699 7.36943058 190.34798431 7.35159492 C147.79351246 6.70226974 105.27563271 5.64563914 62.75 3.9375 C61.64496628 3.89334835 60.53993256 3.8491967 59.40141296 3.80370712 C52.05379569 3.50968243 44.70646642 3.20922392 37.359375 2.90234375 C36.4337677 2.86382042 35.5081604 2.82529709 34.55450439 2.78560638 C23.02865514 2.30237555 11.51371647 1.717077 0 1 C0 0.67 0 0.34 0 0 Z " fill="#AAA79E" transform="translate(442,1499)"/>
<path d="M0 0 C0.33 0 0.66 0 1 0 C1.00808685 0.91753052 1.01617371 1.83506104 1.02450562 2.78039551 C1.13109266 14.687038 1.24911601 26.59354606 1.375 38.5 C1.38516521 39.46496525 1.39533043 40.4299305 1.40580368 41.42413712 C1.725777 71.49227237 2.28470521 101.54267822 3.27119446 131.59659386 C3.94118848 152.07252699 4.11320644 172.5142782 4 193 C3.67 193 3.34 193 3 193 C2.67 191.02 2.34 189.04 2 187 C1.67 187 1.34 187 1 187 C0.20807733 163.91284876 -0.1432742 140.85793157 -0.10139394 117.75799012 C-0.09497458 113.59148483 -0.0945424 109.4249781 -0.09336853 105.25846863 C-0.09030827 97.43269848 -0.08216959 89.60694295 -0.07201904 81.78117913 C-0.06068907 72.84462661 -0.05530573 63.90807325 -0.05032361 54.9715153 C-0.03997994 36.64766869 -0.02248793 18.32383554 0 0 Z " fill="#52514F" transform="translate(6,563)"/>
<path d="M0 0 C0.66 0 1.32 0 2 0 C2 2.64 2 5.28 2 8 C2.60571052 7.97938507 3.21142103 7.95877014 3.83548641 7.93753052 C18.69855285 7.43197043 33.561774 6.93116287 48.42516994 6.43539429 C55.61352158 6.19551668 62.80181639 5.95413636 69.98999023 5.70898438 C76.26847857 5.4948612 82.54706168 5.28379557 88.8257671 5.07613182 C92.13820668 4.96647546 95.45055928 4.85501576 98.76284599 4.74078369 C115.51545055 4.16420402 132.23727017 3.87299475 149 4 C149 4.33 149 4.66 149 5 C148.34402832 5.02505615 147.68805664 5.0501123 147.01220703 5.07592773 C144.04959817 5.1917326 141.08731969 5.31452886 138.125 5.4375 C137.09246094 5.47681641 136.05992187 5.51613281 134.99609375 5.55664062 C134.00996094 5.59853516 133.02382812 5.64042969 132.0078125 5.68359375 C131.09660645 5.72025146 130.18540039 5.75690918 129.24658203 5.79467773 C126.96516519 5.86577065 126.96516519 5.86577065 125 7 C123.54777552 7.12696521 122.09023256 7.19551818 120.63298035 7.23414612 C119.715047 7.26076324 118.79711365 7.28738037 117.85136414 7.31480408 C116.8410463 7.33926102 115.83072845 7.36371796 114.78979492 7.38891602 C113.19671005 7.43302612 113.19671005 7.43302612 111.57144165 7.47802734 C108.04122439 7.57457554 104.510869 7.66431908 100.98046875 7.75390625 C98.52581327 7.8193756 96.07116756 7.88521213 93.61653137 7.95140076 C88.45739763 8.08954539 83.298195 8.22456992 78.13891602 8.35717773 C71.55311983 8.52650597 64.96748676 8.70137795 58.3818922 8.87835789 C53.30387784 9.0145555 48.22581369 9.14881129 43.14772987 9.2823925 C40.72184653 9.34623609 38.29597225 9.41042555 35.87010765 9.47497749 C12.57085446 10.09152609 12.57085446 10.09152609 1 10 C0.67 6.7 0.34 3.4 0 0 Z " fill="#A7A6A2" transform="translate(36,1505)"/>
<path d="M0 0 C0.33 0 0.66 0 1 0 C1.84612764 25.78648791 2.2265827 51.57785564 2.5625 77.375 C2.5736018 78.22734978 2.5847036 79.07969955 2.59614182 79.95787811 C2.73487447 90.63853697 2.86796553 101.31925397 3 112 C3.33 96.16 3.66 80.32 4 64 C4.33 64 4.66 64 5 64 C5 84.46 5 104.92 5 126 C3.68 126 2.36 126 1 126 C0.26703943 94.68347986 -0.09617741 63.38670198 -0.0625 32.0625 C-0.06164398 31.26057598 -0.06078796 30.45865196 -0.05990601 29.63242722 C-0.04857351 19.75492758 -0.02858374 9.87746531 0 0 Z " fill="#B1AEA6" transform="translate(17,1361)"/>
<path d="M0 0 C0.33 0 0.66 0 1 0 C1.12573123 31.17336096 0.98729457 62.33070753 0.5 93.5 C0.48206327 94.64779182 0.48206327 94.64779182 0.46376419 95.81877136 C0.31631482 105.21263565 0.16175288 114.60637029 0 124 C-0.33 124 -0.66 124 -1 124 C-2.09596081 58.28596097 -2.09596081 58.28596097 -2.17724609 28.72940063 C-2.18406357 26.54072756 -2.19429884 24.35206238 -2.20800781 22.16342163 C-2.22562601 19.14923266 -2.23016196 16.13532751 -2.23046875 13.12109375 C-2.23761398 12.24515564 -2.24475922 11.36921753 -2.25212097 10.46673584 C-2.24908463 9.6661676 -2.24604828 8.86559937 -2.24291992 8.04077148 C-2.24434494 7.35176254 -2.24576996 6.6627536 -2.24723816 5.9528656 C-1.95494637 3.64413388 -1.13578249 2.01532276 0 0 Z " fill="#918E84" transform="translate(13,891)"/>
<path d="M0 0 C0 0.33 0 0.66 0 1 C-7.94998374 1.93065739 -15.87682924 2.32167465 -23.875 2.5625 C-24.55834412 2.58367889 -25.24168823 2.60485779 -25.94573975 2.62667847 C-51.94632824 3.40175879 -77.991041 3.08541435 -104 3 C-104 2.67 -104 2.34 -104 2 C-69.31587189 0.53936847 -34.71520684 -0.31322716 0 0 Z " fill="#56554D" transform="translate(209,1498)"/>
<path d="M0 0 C22.68411073 -0.176182 45.32720478 0.33289217 68 1 C68 1.33 68 1.66 68 2 C66.95134766 2.02505615 65.90269531 2.0501123 64.82226562 2.07592773 C60.9009349 2.17068773 56.97975328 2.27073588 53.05859375 2.37231445 C51.36722319 2.41540567 49.67581632 2.45709676 47.984375 2.49731445 C45.54155573 2.55564829 43.09891495 2.61915449 40.65625 2.68359375 C39.91008423 2.70030624 39.16391846 2.71701874 38.3951416 2.73423767 C34.88029774 2.8315855 31.43904849 3.03382182 27.95263672 3.5 C23.99358628 4.00081132 20.08522224 4.21876753 16.1015625 4.31640625 C14.99022949 4.34764587 14.99022949 4.34764587 13.85644531 4.3795166 C11.44606123 4.44524752 9.03557802 4.50434735 6.625 4.5625 C5.80006042 4.58367889 4.97512085 4.60485779 4.12518311 4.62667847 C-13.25054464 5.06886699 -30.61989783 5.10953138 -48 5 C-48 4.67 -48 4.34 -48 4 C-17.31 3.01 -17.31 3.01 14 2 C7.07 1.505 7.07 1.505 0 1 C0 0.67 0 0.34 0 0 Z " fill="#928F86" transform="translate(185,1497)"/>
<path d="M0 0 C-0.66 0.99 -1.32 1.98 -2 3 C-4.9359436 3.36076355 -4.9359436 3.36076355 -8.74462891 3.34057617 C-9.43742447 3.34101425 -10.13022003 3.34145233 -10.8440094 3.34190369 C-13.13847851 3.33981032 -15.43222074 3.31645468 -17.7265625 3.29296875 C-19.31553752 3.28737471 -20.90451771 3.28310371 -22.49349976 3.28010559 C-26.67922203 3.26864158 -30.86463286 3.23916131 -35.05023193 3.20599365 C-39.31990343 3.17532611 -43.58962516 3.16160737 -47.859375 3.14648438 C-56.23972639 3.11429284 -64.61982447 3.06307803 -73 3 C-73 2.67 -73 2.34 -73 2 C-68.7571636 0.98926254 -64.59455902 0.78575934 -60.25390625 0.68359375 C-59.49783585 0.66276733 -58.74176544 0.64194092 -57.96278381 0.6204834 C-55.49612256 0.55450343 -53.02935877 0.49559103 -50.5625 0.4375 C-49.30418365 0.40573166 -49.30418365 0.40573166 -48.02044678 0.37332153 C-32.01138932 -0.02931539 -16.01376579 -0.11814924 0 0 Z " fill="#D6D5D1" transform="translate(701,1489)"/>
<path d="M0 0 C0.99 0.495 0.99 0.495 2 1 C3.14259687 20.66898891 3.10630736 40.30696992 3 60 C2.34 60 1.68 60 1 60 C0.07096687 52.95027802 -0.13195985 46.070508 -0.09765625 38.96484375 C-0.0962413 37.84557999 -0.09482635 36.72631622 -0.09336853 35.57313538 C-0.08780879 32.02789542 -0.07526385 28.48272059 -0.0625 24.9375 C-0.05747979 22.52148529 -0.0529178 20.10546959 -0.04882812 17.68945312 C-0.03785257 11.79294685 -0.02115496 5.89647808 0 0 Z " fill="#4A4B49" transform="translate(6,228)"/>
<path d="M0 0 C13.2 0 26.4 0 40 0 C40 0.33 40 0.66 40 1 C38.02 1.33 36.04 1.66 34 2 C40.93 2.33 47.86 2.66 55 3 C55 3.33 55 3.66 55 4 C48.9392119 4.02511643 42.87845548 4.04305232 36.81762695 4.05493164 C34.7648872 4.05989498 32.71215084 4.06666782 30.65942383 4.07543945 C17.40170878 4.13058532 4.23112019 3.86211736 -9 3 C-9 2.67 -9 2.34 -9 2 C-4.545 1.505 -4.545 1.505 0 1 C0 0.67 0 0.34 0 0 Z " fill="#B1AFA7" transform="translate(383,1495)"/>
<path d="M0 0 C0 0.99 0 1.98 0 3 C-0.67754333 2.93148331 -1.35508667 2.86296661 -2.05316162 2.79237366 C-10.78886814 1.97969584 -19.49958578 1.78428187 -28.265625 1.68359375 C-29.79547614 1.66296681 -31.32532233 1.6419691 -32.85516357 1.62062073 C-36.83998543 1.56599153 -40.82485352 1.51632696 -44.80975342 1.46777344 C-48.89274097 1.41712033 -52.97566318 1.36166533 -57.05859375 1.30664062 C-65.0390069 1.19978507 -73.01947549 1.09818568 -81 1 C-81 0.67 -81 0.34 -81 0 C-53.98252536 -1.69047886 -27.03138706 -0.85331219 0 0 Z " fill="#B5B3AA" transform="translate(1077,1488)"/>
<path d="M0 0 C0.33 0 0.66 0 1 0 C1.90521396 21.6793928 2.12579723 43.30481615 2 65 C1.67 65 1.34 65 1 65 C0.67 63.02 0.34 61.04 0 59 C-0.33 59 -0.66 59 -1 59 C-1.15038989 39.3035513 -0.75229891 19.67981944 0 0 Z " fill="#62625E" transform="translate(8,691)"/>
<path d="M0 0 C14.85 0 29.7 0 45 0 C45 0.66 45 1.32 45 2 C50.28 2 55.56 2 61 2 C61 2.33 61 2.66 61 3 C47.23619056 3.14332118 33.55664049 2.711748 19.8125 2 C17.8756725 1.90321546 15.93882354 1.80685932 14.00195312 1.7109375 C9.3343746 1.47887007 4.66712037 1.24109875 0 1 C0 0.67 0 0.34 0 0 Z " fill="#3E3E3C" transform="translate(766,1509)"/>
<path d="M0 0 C0.33 0 0.66 0 1 0 C1.33 10.23 1.66 20.46 2 31 C2.33 31 2.66 31 3 31 C3.05791844 34.12492251 3.09356746 37.24970766 3.125 40.375 C3.14175781 41.26445313 3.15851562 42.15390625 3.17578125 43.0703125 C3.18222656 43.92109375 3.18867188 44.771875 3.1953125 45.6484375 C3.20578613 46.43395996 3.21625977 47.21948242 3.22705078 48.02880859 C3 50 3 50 1 52 C-0.23080509 49.53838983 -0.12043977 47.93503007 -0.11352539 45.18310547 C-0.11344986 44.18221893 -0.11337433 43.1813324 -0.11329651 42.15011597 C-0.10813522 41.06674957 -0.10297394 39.98338318 -0.09765625 38.8671875 C-0.0962413 37.76021515 -0.09482635 36.6532428 -0.09336853 35.51272583 C-0.08775772 31.96679007 -0.07520337 28.42091677 -0.0625 24.875 C-0.05748639 22.47526133 -0.05292325 20.07552167 -0.04882812 17.67578125 C-0.03778478 11.78383275 -0.0210361 5.89192084 0 0 Z " fill="#CBCAC5" transform="translate(7,984)"/>
<path d="M0 0 C0.33 0 0.66 0 1 0 C1 4.95 1 9.9 1 15 C7.27 15 13.54 15 20 15 C20 16.98 20 18.96 20 21 C16.7 21 13.4 21 10 21 C10 19.35 10 17.7 10 16 C6.7 16 3.4 16 0 16 C0 10.72 0 5.44 0 0 Z " fill="#75746E" transform="translate(0,1472)"/>
<path d="M0 0 C0.33 0 0.66 0 1 0 C1.02536831 7.02920765 1.04287462 14.05840348 1.05493164 21.08764648 C1.0599584 23.47860149 1.06678075 25.86955343 1.07543945 28.26049805 C1.08757747 31.69841266 1.09324492 35.13628661 1.09765625 38.57421875 C1.10281754 39.64210129 1.10797882 40.70998383 1.11329651 41.81022644 C1.11337204 42.81088638 1.11344757 43.81154633 1.11352539 44.8425293 C1.115746 45.71967087 1.11796661 46.59681244 1.12025452 47.50053406 C0.99577809 50.08775147 0.57111904 52.47678996 0 55 C-0.33 55 -0.66 55 -1 55 C-2.14192694 48.86354673 -1.9601286 43.03441636 -1.66015625 36.81640625 C-1.61434921 35.76090073 -1.56854218 34.7053952 -1.52134705 33.61790466 C-1.37447918 30.26580055 -1.21862168 26.91418459 -1.0625 23.5625 C-0.96099372 21.28192744 -0.86007584 19.00132861 -0.75976562 16.72070312 C-0.51332283 11.14681319 -0.2595094 5.57329605 0 0 Z " fill="#CAC9CA" transform="translate(1110,73)"/>
<path d="M0 0 C0 0.33 0 0.66 0 1 C-4.12884164 1.99159159 -8.0020212 2.12904633 -12.2421875 2.1328125 C-13.27208298 2.13424759 -13.27208298 2.13424759 -14.32278442 2.13571167 C-15.77004081 2.13638962 -17.2173003 2.13456228 -18.66455078 2.13037109 C-20.86107342 2.12503384 -23.05739006 2.13032065 -25.25390625 2.13671875 C-26.66666711 2.13605758 -28.07942785 2.13477561 -29.4921875 2.1328125 C-30.76433105 2.13168457 -32.03647461 2.13055664 -33.34716797 2.12939453 C-36.99458601 2.00019178 -40.40330538 1.58351401 -44 1 C-44 0.67 -44 0.34 -44 0 C-38.6982815 -0.16822981 -33.39640502 -0.32872181 -28.09423828 -0.48217773 C-26.29209151 -0.53541048 -24.49000492 -0.59072399 -22.68798828 -0.64819336 C-20.0916033 -0.73062966 -17.49509098 -0.8054781 -14.8984375 -0.87890625 C-13.69808365 -0.91945885 -13.69808365 -0.91945885 -12.47348022 -0.96083069 C-8.17408698 -1.07446715 -4.23875482 -0.88035677 0 0 Z " fill="#BEBCB4" transform="translate(633,1490)"/>
<path d="M0 0 C0 5.28 0 10.56 0 16 C5.28 16 10.56 16 16 16 C16 16.66 16 17.32 16 18 C10.39 17.67 4.78 17.34 -1 17 C-1.495 12.05 -1.495 12.05 -2 7 C-5.63 7 -9.26 7 -13 7 C-13 5.35 -13 3.7 -13 2 C-15.31 2 -17.62 2 -20 2 C-20 1.67 -20 1.34 -20 1 C-17.36 1 -14.72 1 -12 1 C-12 2.65 -12 4.3 -12 6 C-8.7 6 -5.4 6 -2 6 C-2 4.68 -2 3.36 -2 2 C-3.32 1.67 -4.64 1.34 -6 1 C-3.92446352 0.4465236 -2.15634036 0 0 0 Z " fill="#383835" transform="translate(22,1487)"/>
<path d="M0 0 C0 0.33 0 0.66 0 1 C-0.98395752 1.03758423 -0.98395752 1.03758423 -1.98779297 1.07592773 C-4.95040183 1.1917326 -7.91268031 1.31452886 -10.875 1.4375 C-11.90753906 1.47681641 -12.94007813 1.51613281 -14.00390625 1.55664062 C-14.99003906 1.59853516 -15.97617188 1.64042969 -16.9921875 1.68359375 C-17.90339355 1.72025146 -18.81459961 1.75690918 -19.75341797 1.79467773 C-22.03483481 1.86577065 -22.03483481 1.86577065 -24 3 C-26.55641318 3.0165904 -29.08004522 2.97300981 -31.6328125 2.87890625 C-32.76056595 2.84348976 -32.76056595 2.84348976 -33.91110229 2.80735779 C-36.31592566 2.7306938 -38.72042918 2.64668156 -41.125 2.5625 C-42.75389052 2.50928203 -44.38279672 2.45654161 -46.01171875 2.40429688 C-50.0080156 2.27507502 -54.00404092 2.13926173 -58 2 C-58 1.67 -58 1.34 -58 1 C-38.65893718 0.3255829 -19.35573799 -0.17341461 0 0 Z " fill="#AFAEA8" transform="translate(185,1509)"/>
<path d="M0 0 C1.87800293 0.04060547 1.87800293 0.04060547 3.79394531 0.08203125 C5.15170915 0.12711181 6.50945636 0.17269519 7.8671875 0.21875 C9.2483429 0.25504671 10.62952899 0.29019273 12.01074219 0.32421875 C16.25532912 0.43444539 20.4986271 0.57494957 24.7421875 0.71875 C26.22004529 0.76713515 27.69790987 0.81531325 29.17578125 0.86328125 C32.73966447 0.97939557 36.30344884 1.09827115 39.8671875 1.21875 C39.8671875 1.54875 39.8671875 1.87875 39.8671875 2.21875 C23.52796294 2.85843643 7.21994881 3.39008277 -9.1328125 3.21875 C-6.48428667 -0.30644135 -4.24715892 -0.1156694 0 0 Z " fill="#79766C" transform="translate(97.1328125,1499.78125)"/>
<path d="M0 0 C1.93166016 0.01740234 1.93166016 0.01740234 3.90234375 0.03515625 C5.19269531 0.04417969 6.48304688 0.05320313 7.8125 0.0625 C8.81152344 0.07410156 9.81054688 0.08570313 10.83984375 0.09765625 C10.17984375 0.42765625 9.51984375 0.75765625 8.83984375 1.09765625 C8.83984375 1.75765625 8.83984375 2.41765625 8.83984375 3.09765625 C-4.69015625 3.09765625 -18.22015625 3.09765625 -32.16015625 3.09765625 C-32.16015625 2.76765625 -32.16015625 2.43765625 -32.16015625 2.09765625 C-31.31718994 2.0726001 -30.47422363 2.04754395 -29.60571289 2.02172852 C-26.48773951 1.9267747 -23.36994122 1.82753177 -20.25219727 1.7253418 C-18.90101478 1.68194402 -17.54977572 1.64027255 -16.19848633 1.6003418 C-14.25978924 1.54275673 -12.32129349 1.47851327 -10.3828125 1.4140625 C-9.21500244 1.37740479 -8.04719238 1.34074707 -6.84399414 1.30297852 C-3.53839548 1.05008954 -3.48010909 0.10754354 0 0 Z " fill="#D5D4CF" transform="translate(443.16015625,2.90234375)"/>
<path d="M0 0 C13.53 0 27.06 0 41 0 C41 0.99 41 1.98 41 3 C40.31067383 2.93433838 39.62134766 2.86867676 38.91113281 2.80102539 C30.52868587 2.04760143 22.16075449 1.6953171 13.75 1.4375 C12.40754308 1.39415828 11.06509505 1.35053997 9.72265625 1.30664062 C6.4818473 1.20172235 3.24097723 1.09955985 0 1 C0 0.67 0 0.34 0 0 Z " fill="#A19F94" transform="translate(1036,1488)"/>
<path d="M0 0 C6.27 0 12.54 0 19 0 C19 0.33 19 0.66 19 1 C14.38 1 9.76 1 5 1 C5 1.66 5 2.32 5 3 C3.02 3 1.04 3 -1 3 C-0.67 2.01 -0.34 1.02 0 0 Z " fill="#D7D6D0" transform="translate(590,1505)"/>
<path d="M0 0 C3.96 0 7.92 0 12 0 C12 0.99 12 1.98 12 3 C8.04 2.67 4.08 2.34 0 2 C0 1.34 0 0.68 0 0 Z " fill="#807C71" transform="translate(1065,1488)"/>
<path d="M0 0 C2.00720923 0.28674418 4.0085944 0.61866701 6 1 C6 1.33 6 1.66 6 2 C1.84373632 3.00926479 -2.04365094 3.10239579 -6.3125 3.0625 C-7.56675781 3.05347656 -8.82101562 3.04445313 -10.11328125 3.03515625 C-11.06589844 3.02355469 -12.01851562 3.01195312 -13 3 C-13 2.67 -13 2.34 -13 2 C-12.14535156 1.93941406 -11.29070313 1.87882812 -10.41015625 1.81640625 C-8.75306641 1.69072266 -8.75306641 1.69072266 -7.0625 1.5625 C-5.96035156 1.48128906 -4.85820313 1.40007812 -3.72265625 1.31640625 C-1.08890097 1.29581916 -1.08890097 1.29581916 0 0 Z " fill="#CCCBC4" transform="translate(627,1489)"/>
<path d="M0 0 C1.65 0 3.3 0 5 0 C5 1.32 5 2.64 5 4 C3.35 4 1.7 4 0 4 C0 2.68 0 1.36 0 0 Z " fill="#AAA79E" transform="translate(10,1489)"/>
</svg>
