<svg width="306" height="80" viewBox="0 0 306 80" fill="none" xmlns="http://www.w3.org/2000/svg">
<path d="M71.0532 67.081L76.1952 54.126H78.0125L83.0734 67.081H81.0891L79.682 63.4988H74.1871L72.7561 67.081H71.0532ZM74.7165 62.1251H79.1478L76.9345 56.53L74.7165 62.1251Z" fill="white"/>
<path d="M84.9478 67.081V54.126H86.7842V65.7073H92.6178V67.081H84.9478Z" fill="white"/>
<path d="M93.7104 66.8335V65.0161C94.8286 65.6023 96.0568 65.9483 97.3165 66.0321C97.947 66.0633 98.5663 65.8574 99.0527 65.455C99.2684 65.273 99.44 65.0446 99.5549 64.7869C99.6697 64.5292 99.7247 64.2488 99.7158 63.9668C99.7294 63.4965 99.5756 63.0367 99.2817 62.6694C98.8246 62.1829 98.2853 61.7808 97.6885 61.4817L96.7966 60.9665C95.9219 60.5129 95.1327 59.9109 94.4641 59.1873C94.016 58.6406 93.776 57.9528 93.7868 57.246C93.7746 56.7799 93.8652 56.3168 94.0524 55.8897C94.2395 55.4627 94.5185 55.0821 94.8695 54.7752C95.6375 54.1181 96.6263 53.7771 97.6361 53.8212C98.7077 53.8274 99.7728 53.9881 100.799 54.2982V55.9819C99.8321 55.5427 98.7984 55.2702 97.741 55.1759C97.1728 55.1513 96.6146 55.3306 96.1669 55.6815C95.9712 55.8315 95.8132 56.0252 95.7055 56.2472C95.5978 56.4691 95.5435 56.7131 95.5469 56.9598C95.5429 57.3873 95.7054 57.7996 96 58.1093C96.4964 58.5814 97.0568 58.9813 97.6647 59.297L98.5901 59.8217C99.4754 60.2751 100.271 60.8861 100.937 61.6247C101.387 62.2087 101.622 62.9294 101.605 63.6663C101.622 64.1843 101.519 64.6992 101.302 65.1702C101.086 65.6413 100.764 66.0556 100.36 66.3804C99.415 67.1012 98.2457 67.4645 97.0589 67.4059C95.9224 67.3638 94.7964 67.1713 93.7104 66.8335Z" fill="white"/>
<path d="M104.161 67.081V54.126H106.002V59.5732H112.165V54.126H114.001V67.081H112.165V60.9612H106.002V67.081H104.161Z" fill="white"/>
<path d="M115.814 67.081L120.951 54.126H122.773L127.834 67.081H125.831L124.4 63.4988H118.948L117.517 67.081H115.814ZM119.472 62.1251H123.923L121.71 56.53L119.472 62.1251Z" fill="white"/>
<path d="M129.704 67.081V54.126H131.512L138.032 64.1428V54.126H139.606V67.081H137.813L131.283 57.0642V67.081H129.704Z" fill="white"/>
<path d="M152.686 66.7287C151.354 67.1431 149.972 67.3711 148.579 67.406C146.518 67.406 144.938 66.8209 143.837 65.6507C142.737 64.4805 142.187 62.7983 142.187 60.6041C142.187 58.4449 142.747 56.7707 143.866 55.5814C144.985 54.3921 146.556 53.7991 148.579 53.8023C149.961 53.8136 151.336 54.0109 152.667 54.3889V56.087C151.353 55.5789 149.97 55.2718 148.564 55.176C147.947 55.1437 147.33 55.2563 146.763 55.5048C146.197 55.7532 145.696 56.1307 145.302 56.607C144.529 57.5609 144.143 58.8917 144.143 60.6232C144.143 62.3547 144.553 63.6616 145.383 64.6109C145.82 65.0938 146.359 65.473 146.962 65.7206C147.564 65.9682 148.215 66.0779 148.865 66.0418C149.539 66.0307 150.207 65.9215 150.849 65.7175V61.4818H152.686V66.7287Z" fill="white"/>
<path d="M155.881 67.081V54.126H157.717V67.081H155.881Z" fill="white"/>
<path d="M164.152 67.081V55.4997H159.559V54.126H170.587V55.4997H165.993V67.081H164.152Z" fill="white"/>
<path d="M172.399 67.081V54.126H174.236V67.081H172.399Z" fill="white"/>
<path d="M190.858 67.0811L190.224 66.3083C189.266 67.0385 188.09 67.4249 186.885 67.4054C185.663 67.4498 184.47 67.0287 183.546 66.2273C183.122 65.8537 182.784 65.3912 182.558 64.8727C182.333 64.3542 182.224 63.7923 182.239 63.227C182.239 61.2331 183.293 59.8801 185.402 59.1678C184.899 58.3731 184.598 57.4676 184.524 56.53C184.522 56.1597 184.602 55.7935 184.76 55.4584C184.918 55.1233 185.148 54.8278 185.435 54.5934C186.051 54.0614 186.844 53.779 187.658 53.8017C188.42 53.7749 189.163 54.0392 189.738 54.541C190.003 54.7745 190.214 55.0633 190.356 55.3872C190.498 55.7111 190.567 56.0621 190.558 56.4156C190.558 57.713 189.604 58.8402 187.696 59.7974C188.565 61.325 189.583 62.763 190.734 64.0903C191.319 63.0962 191.595 61.9505 191.526 60.7991V60.1647H193.253C193.292 61.9689 192.683 63.7273 191.536 65.1206C192.082 65.812 192.682 66.4595 193.329 67.0572L190.858 67.0811ZM189.47 65.2971C188.17 63.6846 186.999 61.9716 185.969 60.1742C184.618 60.7117 183.944 61.5845 183.947 62.7929C183.938 63.2249 184.016 63.6542 184.175 64.0557C184.335 64.4571 184.574 64.8225 184.877 65.1302C185.168 65.4391 185.52 65.6836 185.911 65.8479C186.302 66.0122 186.723 66.0927 187.147 66.0842C187.986 66.0763 188.8 65.8005 189.47 65.2971ZM187.052 58.686C188.299 58.1232 188.92 57.3711 188.917 56.4298C188.926 56.2493 188.897 56.069 188.833 55.9C188.769 55.731 188.671 55.5769 188.545 55.4472C188.414 55.3238 188.26 55.2277 188.091 55.1646C187.922 55.1016 187.742 55.0728 187.562 55.08C187.387 55.074 187.211 55.1039 187.047 55.1679C186.883 55.2319 186.734 55.3285 186.608 55.452C186.485 55.584 186.389 55.7394 186.327 55.909C186.265 56.0786 186.237 56.2589 186.246 56.4394C186.311 57.2509 186.589 58.0308 187.052 58.7003V58.686Z" fill="white"/>
<path d="M199.893 67.081L205.035 54.126H206.852L211.913 67.081H209.929L208.522 63.4988H203.027L201.596 67.081H199.893ZM203.58 62.1251H208.011L205.798 56.53L203.58 62.1251Z" fill="white"/>
<path d="M212.991 66.8339V65.0165C214.109 65.6026 215.338 65.9487 216.597 66.0325C217.228 66.0627 217.847 65.857 218.334 65.4554C218.549 65.2734 218.721 65.045 218.836 64.7873C218.95 64.5296 219.005 64.2492 218.997 63.9672C219.01 63.4969 218.856 63.0371 218.562 62.6697C218.103 62.1822 217.563 61.7786 216.965 61.4773L216.073 60.9621C215.198 60.5085 214.409 59.9065 213.74 59.1829C213.292 58.6362 213.052 57.9484 213.063 57.2416C213.049 56.7753 213.139 56.3118 213.327 55.8845C213.514 55.4573 213.794 55.0769 214.146 54.7708C214.914 54.1137 215.902 53.7727 216.912 53.8168C217.984 53.823 219.049 53.9837 220.075 54.2938V55.9776C219.108 55.5383 218.074 55.2658 217.017 55.1715C216.449 55.1469 215.891 55.3262 215.443 55.6771C215.247 55.8269 215.088 56.0204 214.979 56.2424C214.871 56.4643 214.816 56.7084 214.818 56.9554C214.821 57.3861 214.992 57.7987 215.295 58.1049C215.791 58.5782 216.351 58.9781 216.96 59.2926L217.885 59.8173C218.771 60.2707 219.566 60.8817 220.232 61.6203C220.68 62.2048 220.914 62.9255 220.895 63.6619C220.913 64.1795 220.81 64.6941 220.595 65.1652C220.38 65.6362 220.058 66.0507 219.655 66.376C218.71 67.096 217.541 67.4592 216.354 67.4015C215.213 67.3625 214.082 67.1716 212.991 66.8339Z" fill="white"/>
<path d="M222.66 66.8339V65.0165C223.778 65.6026 225.006 65.9487 226.266 66.0325C226.896 66.0637 227.516 65.8578 228.002 65.4554C228.218 65.2734 228.389 65.045 228.504 64.7873C228.619 64.5296 228.674 64.2492 228.665 63.9672C228.679 63.4969 228.525 63.0371 228.231 62.6697C227.773 62.1811 227.232 61.7774 226.633 61.4773L225.741 60.9621C224.866 60.5085 224.077 59.9065 223.409 59.1829C222.96 58.6362 222.72 57.9484 222.731 57.2416C222.719 56.7755 222.81 56.3124 222.997 55.8853C223.184 55.4583 223.463 55.0777 223.814 54.7708C224.582 54.1137 225.571 53.7727 226.581 53.8168C227.652 53.8227 228.717 53.9833 229.743 54.2938V55.9776C228.777 55.5383 227.743 55.2658 226.685 55.1715C226.117 55.1469 225.559 55.3262 225.111 55.6771C224.916 55.8271 224.758 56.0209 224.65 56.2428C224.542 56.4647 224.488 56.7087 224.491 56.9554C224.494 57.3862 224.665 57.799 224.968 58.1049C225.465 58.577 226.025 58.9769 226.633 59.2926L227.558 59.8173C228.444 60.2707 229.239 60.8817 229.905 61.6203C230.355 62.2044 230.591 62.925 230.573 63.6619C230.59 64.1799 230.487 64.6948 230.271 65.1658C230.055 65.6369 229.732 66.0512 229.328 66.376C228.383 67.0968 227.214 67.4601 226.027 67.4015C224.884 67.3626 223.752 67.1717 222.66 66.8339Z" fill="white"/>
<path d="M238.401 67.4065C237.575 67.4413 236.752 67.2936 235.99 66.9736C235.228 66.6537 234.546 66.1696 233.993 65.5557C232.893 64.3219 232.343 62.6715 232.343 60.6046C232.343 58.5376 232.893 56.8873 233.993 55.6534C234.568 55.0673 235.254 54.6017 236.01 54.2838C236.767 53.9659 237.58 53.8022 238.401 53.8022C239.221 53.8022 240.034 53.9659 240.791 54.2838C241.548 54.6017 242.233 55.0673 242.808 55.6534C243.905 56.8873 244.455 58.5376 244.458 60.6046C244.462 62.6715 243.911 64.3219 242.808 65.5557C242.254 66.1688 241.572 66.6524 240.81 66.9722C240.049 67.2921 239.226 67.4403 238.401 67.4065ZM238.401 66.0327C238.982 66.0584 239.562 65.9414 240.088 65.692C240.614 65.4426 241.071 65.0683 241.42 64.6018C242.145 63.6478 242.503 62.3074 242.503 60.5951C242.503 58.8827 242.145 57.5709 241.42 56.6169C241.054 56.1698 240.593 55.8096 240.071 55.5622C239.549 55.3148 238.978 55.1865 238.401 55.1865C237.823 55.1865 237.252 55.3148 236.73 55.5622C236.208 55.8096 235.747 56.1698 235.381 56.6169C234.656 57.5709 234.294 58.897 234.294 60.5951C234.294 62.3074 234.656 63.6382 235.381 64.6018C235.729 65.0689 236.186 65.4437 236.713 65.6931C237.239 65.9426 237.819 66.0592 238.401 66.0327Z" fill="white"/>
<path d="M256.76 66.4139C255.467 67.0798 254.031 67.4203 252.577 67.406C250.564 67.406 249.009 66.8161 247.912 65.6364C246.815 64.4566 246.266 62.7824 246.266 60.6137C246.266 58.4481 246.824 56.7707 247.94 55.5814C249.057 54.3921 250.634 53.7991 252.672 53.8023C254.046 53.8324 255.411 54.0229 256.741 54.3699V56.0966C255.429 55.5795 254.045 55.269 252.639 55.176C252.02 55.1434 251.403 55.2558 250.835 55.5042C250.268 55.7527 249.767 56.1303 249.371 56.607C248.603 57.5609 248.217 58.9013 248.217 60.6327C248.217 62.3642 248.627 63.5949 249.452 64.5488C249.872 65.0255 250.393 65.4016 250.978 65.6493C251.562 65.897 252.195 66.01 252.83 65.9798C254.213 65.9343 255.564 65.5459 256.76 64.8493V66.4139Z" fill="white"/>
<path d="M259.421 67.081V54.126H261.258V67.081H259.421Z" fill="white"/>
<path d="M263.07 67.081L268.212 54.126H270.03L275.09 67.081H273.106L271.675 63.4988H266.204L264.773 67.081H263.07ZM266.734 62.1251H271.165L268.952 56.53L266.734 62.1251Z" fill="white"/>
<path d="M280.046 67.081V55.4997H275.448V54.126H286.481V55.4997H281.883V67.081H280.046Z" fill="white"/>
<path d="M288.298 67.081V54.126H295.539V55.4997H290.14V59.6591H294.685V61.0042H290.159V65.6978H295.935V67.0715L288.298 67.081Z" fill="white"/>
<path d="M297.218 66.833V65.0157C298.338 65.6025 299.568 65.9485 300.829 66.0317C301.459 66.0614 302.078 65.8557 302.565 65.4546C302.78 65.2717 302.95 65.043 303.064 64.7854C303.178 64.5278 303.232 64.2479 303.224 63.9663C303.237 63.497 303.085 63.0379 302.794 62.6689C302.334 62.1825 301.794 61.7791 301.196 61.4764L300.3 60.9613C299.425 60.5077 298.636 59.9057 297.967 59.1821C297.521 58.6344 297.281 57.9473 297.29 57.2408C297.277 56.7741 297.368 56.3105 297.556 55.8833C297.744 55.456 298.025 55.0758 298.377 54.77C299.145 54.112 300.134 53.7709 301.144 53.816C302.214 53.8219 303.278 53.9825 304.302 54.293V55.9768C303.337 55.5376 302.305 55.2651 301.249 55.1706C300.679 55.1475 300.12 55.3266 299.67 55.6762C299.474 55.8263 299.316 56.02 299.209 56.242C299.101 56.4639 299.047 56.7079 299.05 56.9546C299.055 57.3849 299.226 57.7967 299.527 58.1041C300.023 58.5762 300.584 58.9761 301.192 59.2918L302.122 59.8165C303.007 60.2683 303.801 60.8796 304.464 61.6195C304.913 62.2035 305.149 62.9242 305.132 63.6611C305.149 64.179 305.045 64.6939 304.829 65.165C304.613 65.6361 304.29 66.0504 303.887 66.3751C302.944 67.096 301.776 67.4593 300.591 67.4007C299.446 67.3622 298.312 67.1713 297.218 66.833Z" fill="white"/>
<path d="M77.6689 28.5596H75.0073V30.8682H77.6689V28.5596Z" fill="white"/>
<path d="M77.6689 23.5898H75.0073V25.8985H77.6689V23.5898Z" fill="white"/>
<path d="M91.2155 33.8873V25.2585C91.2427 23.4435 90.5578 21.6901 89.3075 20.3741C88.7362 19.7297 88.0327 19.2159 87.245 18.8678C86.4573 18.5196 85.6038 18.3452 84.7427 18.3565H81.523V33.8873H76.2761C74.6588 33.9092 73.0539 33.6025 71.5587 32.9858C71.3393 33.6345 71.1151 34.2879 70.8813 34.9366C71.1532 35.0416 71.4251 35.1418 71.7113 35.2324C73.1227 35.7237 74.6052 35.9799 76.0996 35.9908H83.617V20.4314H84.7284C85.5021 20.4297 86.2596 20.6535 86.9082 21.0753C87.5863 21.5123 88.1399 22.1169 88.5157 22.8306C88.9177 23.5762 89.1245 24.4115 89.1167 25.2585V35.9908H95.3033V33.8873H91.2155Z" fill="white"/>
<path d="M94.4351 35.9908V33.8873H97.8837C98.0303 33.8974 98.1756 33.8551 98.2939 33.768C98.4539 33.5385 98.5267 33.2594 98.499 32.981V11.9219H100.579V20.937C100.517 20.999 100.693 20.8416 101.103 20.46C102.337 19.2319 103.906 18.3964 105.613 18.0587C107.321 17.721 109.09 17.8963 110.698 18.5625C112.305 19.2288 113.68 20.356 114.648 21.8023C115.616 23.2486 116.135 24.9491 116.138 26.6895V33.8873H120.231V35.9908H94.4351ZM100.579 33.8873H114.063V26.6895C114.062 25.8071 113.887 24.9337 113.548 24.119C113.209 23.3043 112.713 22.5645 112.088 21.9417C111.463 21.3188 110.721 20.8253 109.905 20.4892C109.089 20.1531 108.215 19.9811 107.333 19.983C106.154 19.9784 104.994 20.2846 103.971 20.8707C102.947 21.4569 102.097 22.3024 101.504 23.3219C100.901 24.3497 100.588 25.5217 100.598 26.7133L100.579 33.8873Z" fill="white"/>
<path d="M125.554 33.8873H129.68V35.9908H119.354V33.8873H123.446V18.3564H125.55L125.554 33.8873ZM120.846 38.3328H123.189V40.9944H120.846V38.3328ZM125.822 38.3328H128.159V40.9944H125.831L125.822 38.3328Z" fill="white"/>
<path d="M128.803 35.9914V33.8879H135.648C135.724 33.9451 135.571 33.7829 135.171 33.4109C133.942 32.1802 133.105 30.6135 132.765 28.908C132.425 27.2025 132.597 25.4346 133.261 23.827C133.924 22.2193 135.048 20.8439 136.491 19.8739C137.934 18.9039 139.632 18.3827 141.371 18.3761H145.641V33.9069H149.709V36.0104L128.803 35.9914ZM143.547 20.4892H141.381C140.498 20.4749 139.622 20.643 138.807 20.9828C137.992 21.3225 137.256 21.8268 136.644 22.4639C135.383 23.7307 134.674 25.4458 134.674 27.2338C134.674 29.0218 135.383 30.737 136.644 32.0037C137.659 33.0602 139.007 33.7342 140.46 33.9117H143.532L143.547 20.4892ZM137.169 13.4727H139.478V16.1676H137.169V13.4727ZM142.139 13.4727H144.434V16.1676H142.12L142.139 13.4727Z" fill="white"/>
<path d="M155.042 33.8878H159.163V35.9913H148.841V33.8878H152.933V18.3569H155.042V33.8878ZM152.819 13.5298H155.156V16.22H152.819V13.5298Z" fill="white"/>
<path d="M158.266 35.9908V33.8873H162.363V18.4137H164.467V33.8873H170.291V18.4137H172.366V33.8873H178.219V18.3565H180.294V33.8873H184.391V35.9908H158.266ZM167.687 14.0493H169.995V16.7109H167.687V14.0493ZM170.143 9.69434H172.485V12.3512H170.143V9.69434ZM172.657 14.0493H174.97V16.7109H172.657V14.0493Z" fill="white"/>
<path d="M187.625 11.9219H189.733V35.9956H183.532V33.8873H187.625V11.9219Z" fill="white"/>
<path d="M195.901 11.9219H193.826V35.9956H195.901V11.9219Z" fill="white"/>
<path d="M205.846 35.9913V33.8878H216.378V26.6042C216.391 25.7214 216.223 24.8453 215.883 24.0304C215.544 23.2155 215.04 22.4793 214.403 21.8677C213.739 21.2158 212.949 20.7059 212.081 20.3689C211.214 20.0318 210.286 19.8748 209.356 19.9072V17.8276C210.561 17.7921 211.76 18.0036 212.88 18.449C214 18.8944 215.016 19.5644 215.867 20.4176C216.699 21.2198 217.357 22.1838 217.802 23.2503C218.247 24.3168 218.468 25.4631 218.453 26.6185V36.0057L205.846 35.9913Z" fill="white"/>
<path d="M235.596 35.9909V37.0165C235.6 37.7602 235.433 38.4949 235.108 39.1639C234.783 39.8329 234.308 40.4184 233.721 40.8753C232.504 41.8744 230.969 42.4041 229.395 42.3683C228.374 42.3751 227.364 42.1552 226.438 41.7244C225.543 41.3126 224.761 40.6908 224.158 39.9118L223.542 39.0914L225.212 37.8369L225.827 38.6525C226.227 39.1727 226.75 39.5857 227.349 39.8545C227.99 40.1505 228.689 40.3004 229.395 40.2934C230.455 40.3228 231.492 39.9746 232.319 39.3108C232.684 39.0479 232.982 38.7038 233.191 38.3055C233.4 37.9073 233.513 37.466 233.521 37.0165V35.9909H231.356C229.015 35.9909 226.771 35.0612 225.116 33.4064C223.461 31.7515 222.531 29.507 222.531 27.1666C222.531 24.8263 223.461 22.5817 225.116 20.9269C226.771 19.272 229.015 18.3423 231.356 18.3423H235.596V33.8731H239.412V35.9766L235.596 35.9909ZM233.521 33.8874V20.4887H231.356C230.023 20.4865 228.719 20.8806 227.611 21.621C226.502 22.3615 225.639 23.4147 225.131 24.647C224.623 25.8792 224.492 27.2347 224.757 28.5412C225.021 29.8477 225.667 31.0461 226.614 31.9842C227.204 32.5974 227.914 33.083 228.699 33.4112C229.484 33.7393 230.328 33.903 231.179 33.8922L233.521 33.8874Z" fill="white"/>
<path d="M245.775 35.9959H238.52V33.8876H243.991C243.075 32.6156 242.617 30.9096 242.617 28.7695C242.567 26.4715 243.357 24.2342 244.84 22.478C245.552 21.6912 246.405 21.0442 247.354 20.57C248.306 20.0872 249.358 19.8355 250.426 19.8354C251.493 19.8404 252.544 20.0918 253.498 20.57C254.449 21.05 255.294 21.7167 255.983 22.5304C257.468 24.2719 258.26 26.5001 258.205 28.7886C258.205 30.9128 257.748 32.6188 256.832 33.9067H262.331V36.015H255.048C254.569 36.4021 254.049 36.7349 253.498 37.0071C252.543 37.4838 251.492 37.7335 250.426 37.7369C249.359 37.7385 248.306 37.4884 247.354 37.0071C246.795 36.7316 246.266 36.3991 245.775 36.015M250.426 21.8913C249.645 21.8963 248.876 22.0793 248.176 22.4265C247.477 22.7737 246.866 23.2758 246.39 23.8946C245.249 25.2566 244.645 26.9886 244.692 28.7647C244.68 29.9607 244.951 31.1426 245.484 32.2134C245.96 33.2096 246.679 34.0705 247.573 34.7176C248.296 35.2438 249.151 35.5579 250.043 35.6245C250.935 35.691 251.827 35.5074 252.62 35.0944C253.319 34.7391 253.936 34.242 254.432 33.6348C254.962 32.9773 255.378 32.2356 255.663 31.4406C255.979 30.5838 256.14 29.6778 256.14 28.7647C256.187 26.9886 255.583 25.2566 254.442 23.8946C253.97 23.278 253.364 22.777 252.67 22.4299C251.976 22.0827 251.211 21.8985 250.435 21.8913" fill="white"/>
<path d="M261.454 35.9907V33.8872H281.048C280.994 33.5723 280.975 33.2523 280.991 32.9332V26.6607C281.004 25.7767 280.835 24.8995 280.492 24.0844C280.15 23.2692 279.643 22.5337 279.002 21.9242C277.739 20.6691 276.03 19.9647 274.249 19.9647C272.468 19.9647 270.759 20.6691 269.496 21.9242C268.853 22.5329 268.344 23.268 268 24.0832C267.656 24.8984 267.485 25.776 267.497 26.6607V28.0345H265.422V26.6607C265.422 24.3204 266.352 22.0759 268.007 20.421C269.662 18.7661 271.906 17.8364 274.247 17.8364C276.587 17.8364 278.831 18.7661 280.486 20.421C282.141 22.0759 283.071 24.3204 283.071 26.6607V32.9523C283.038 33.24 283.111 33.53 283.276 33.7679C283.395 33.8543 283.54 33.8964 283.686 33.8872H287.197V35.9907H261.454Z" fill="white"/>
<path d="M291.785 33.8876C290.869 32.6156 290.411 30.9096 290.411 28.7695C290.361 26.4715 291.151 24.2342 292.634 22.478C293.346 21.6912 294.199 21.0442 295.148 20.57C296.1 20.0872 297.152 19.8355 298.22 19.8354C299.286 19.8404 300.338 20.0918 301.291 20.57C302.242 21.0498 303.087 21.7147 303.777 22.5257C305.215 24.2952 306 26.5059 306 28.7862C306 31.0664 305.215 33.2772 303.777 35.0467C303.099 35.8713 302.251 36.5399 301.291 37.0071C300.337 37.4838 299.286 37.7335 298.22 37.7369C297.153 37.7385 296.1 37.4884 295.148 37.0071C294.588 36.7317 294.058 36.3975 293.569 36.0102H286.314V33.9067L291.785 33.8876ZM295.792 34.9703C296.511 35.4057 297.336 35.6381 298.177 35.6429C298.951 35.6447 299.714 35.4581 300.399 35.0991C301.099 34.7438 301.716 34.2467 302.212 33.6396C302.742 32.982 303.158 32.2404 303.443 31.4454C303.758 30.5885 303.92 29.6826 303.92 28.7695C303.967 26.9933 303.363 25.2613 302.222 23.8994C301.752 23.2771 301.145 22.7722 300.447 22.4246C299.749 22.077 298.98 21.896 298.201 21.896C297.421 21.896 296.652 22.077 295.954 22.4246C295.257 22.7722 294.649 23.2771 294.18 23.8994C293.038 25.2613 292.435 26.9933 292.481 28.7695C292.469 29.9655 292.74 31.1474 293.273 32.2181C293.735 33.199 294.427 34.0533 295.291 34.708L295.792 34.9703Z" fill="white"/>
<path d="M22.8009 45.8789C23.961 43.2178 24.955 40.4874 25.7773 37.7033C27.2083 33.1194 28.2911 28.4258 29.8508 23.8706C30.7691 21.0986 32.6052 18.7226 35.0559 17.1348C37.5065 15.547 40.4254 14.8422 43.3306 15.1369C43.6038 15.1349 43.8764 15.1126 44.1462 15.0701C42.3607 13.7815 40.2612 12.9974 38.0681 12.8002C35.875 12.603 33.6693 12.9998 31.6825 13.9492C28.3245 15.6902 26.1398 18.5521 24.8997 21.9435C23.4687 25.8596 22.5147 29.9427 21.4081 33.9685C20.478 37.3074 19.8436 40.7894 17.8116 43.7086C15.2549 47.3862 10.8857 47.6342 7.87111 44.3382C5.33352 41.5717 4.57033 38.1994 4.57033 34.5599C4.57033 24.8961 4.57033 15.2354 4.57033 5.57798C4.57033 5.19161 4.61326 4.81002 4.65142 4.25194H30.5282V0.25H0.30127V1.85746C0.30127 12.1859 0.30127 22.5096 0.30127 32.8284C0.30127 34.0591 0.301271 35.2993 0.444368 36.5251C0.8355 40.5175 1.70362 44.3144 4.26029 47.6152C8.61522 53.2532 19.1233 54.0498 22.8295 45.8742" fill="white"/>
<path d="M56.0325 37.064C56.0476 34.991 55.9233 32.9194 55.6605 30.8631C55.1835 27.3811 54.0578 24.1375 51.6108 21.4568C47.0365 16.4484 37.4013 16.21 34.0099 23.5222C32.9267 25.8315 31.9992 28.2106 31.2338 30.6437C29.7408 35.4804 28.5484 40.4172 27.0029 45.2348C25.6053 49.5945 22.71 52.7379 18.2454 54.0925C16.6045 54.5695 14.8253 54.6363 13.0986 54.8939C13.2115 54.9847 13.3293 55.0691 13.4516 55.1467C18.9942 58.457 26.2016 56.6206 29.7838 51.0303C32.3547 47.0188 33.5711 42.5303 34.5537 37.9417C35.3646 34.1257 36.1563 30.2383 38.0738 26.7562C40.7736 21.8623 46.3639 21.6286 49.5836 26.2077C51.525 28.9599 52.1165 32.0794 52.126 35.3563C52.126 44.796 52.126 54.2404 52.1594 63.6848C52.1594 65.4306 52.0926 65.5546 50.3277 65.5546C42.6959 65.5546 35.064 65.5546 27.4322 65.5546C27.0124 65.5546 26.2493 65.6548 26.235 65.7836C26.0621 66.8112 26.0316 67.8576 26.1443 68.8935C26.1777 69.1416 27.1651 69.3992 27.7184 69.4039C36.4569 69.4389 45.2017 69.4389 53.9529 69.4039C54.6063 69.4039 55.2551 69.3181 56.0898 69.2561V66.8139C56.0898 56.8829 56.0898 46.952 56.0898 37.021" fill="white"/>
<path d="M8.63916 79.7357V73.5015H9.52637V79.0775H12.3311V79.7357H8.63916Z" fill="white"/>
<path d="M12.5073 79.7357L14.9829 73.5015H15.8606L18.298 79.7357H17.344L16.6667 78.0138H14.0242L13.3325 79.7357H12.5073ZM14.2722 77.3508H16.4043L15.3406 74.6558L14.2722 77.3508Z" fill="white"/>
<path d="M20.0055 79.7357L18.4028 73.5015H19.2566L20.5302 78.424L21.7084 73.5015H22.5622L23.6688 78.3572L25.0425 73.5015H25.7628L24.017 79.7357H23.1298L22.0375 74.9372L20.8927 79.7357H20.0055Z" fill="white"/>
<path d="M29.3115 79.7357V73.5015H32.8174V74.1597H30.2178V76.268H32.4024V76.9167H30.2178V79.75L29.3115 79.7357Z" fill="white"/>
<path d="M33.9385 79.7357V73.5015H34.8209V79.7357H33.9385Z" fill="white"/>
<path d="M36.4287 79.736V73.5017H38.3367C38.827 73.4672 39.3137 73.6075 39.7104 73.8976C39.873 74.0396 40.0007 74.2172 40.0834 74.4166C40.1661 74.616 40.2017 74.8318 40.1874 75.0472C40.1933 75.4269 40.0761 75.7984 39.8535 76.1061C39.6173 76.4246 39.2968 76.6708 38.9281 76.8168L41.0078 79.736H39.9203L38.1459 77.0982H37.3207V79.736H36.4287ZM37.3064 76.4352H37.5926C38.0325 76.4658 38.4702 76.3501 38.8375 76.1061C38.9785 75.9916 39.0908 75.8457 39.1654 75.6801C39.2399 75.5144 39.2747 75.3336 39.2668 75.1521C39.2668 74.5161 38.7993 74.1981 37.8644 74.1981H37.3064V76.4352Z" fill="white"/>
<path d="M41.8804 79.7357V73.5015H43.1062L44.8329 78.3238L46.6121 73.5015H47.7092V79.7357H46.8792V74.6701L45.1621 79.3208H44.313L42.6436 74.6558V79.7357H41.8804Z" fill="white"/>
</svg>
