<svg width="528" height="1096" viewBox="0 0 528 1096" fill="none" xmlns="http://www.w3.org/2000/svg">
<path d="M527.297 445.717C527.482 397.645 525.955 349.604 522.728 301.918C516.869 221.17 503.044 145.953 472.991 83.7877C416.811 -32.357 298.475 -37.8875 256.824 131.684C243.52 185.235 232.13 240.406 222.729 296.83C204.393 408.993 189.747 523.478 170.767 635.198C153.602 736.3 118.043 809.194 63.2101 840.609C43.0578 851.67 21.2067 853.219 0 859.192C1.38576 861.298 2.83301 863.255 4.33501 865.054C72.4073 941.82 160.925 899.234 204.92 769.595C236.496 676.568 251.434 572.481 263.502 466.07C273.461 377.579 283.186 287.428 306.736 206.68C339.893 93.1901 408.551 87.7697 448.094 193.959C471.937 257.783 479.201 330.125 479.318 406.117C479.318 625.022 479.318 844.037 479.728 1063.05C479.728 1103.54 478.908 1106.41 457.233 1106.41C363.502 1106.41 269.77 1106.41 176.039 1106.41C170.884 1106.41 161.511 1108.74 161.335 1111.72C159.212 1135.55 158.837 1159.82 160.222 1183.84C160.632 1189.6 172.758 1195.57 179.554 1195.68C286.876 1196.49 394.277 1196.49 501.755 1195.68C509.781 1195.68 517.748 1193.69 528 1192.25V1135.62C528 905.318 528 675.019 528 444.721" fill="#6B836B"/>
</svg>
