<svg width="528" height="1096" viewBox="0 0 528 1096" fill="none" xmlns="http://www.w3.org/2000/svg">
<path d="M0.703003 650.283C0.518311 698.355 2.04492 746.396 5.2724 794.082C11.1306 874.83 24.9561 950.047 55.0087 1012.21C111.189 1128.36 229.525 1133.89 271.176 964.316C284.48 910.765 295.87 855.594 305.271 799.17C323.607 687.007 338.253 572.522 357.233 460.802C374.398 359.7 409.957 286.806 464.79 255.391C484.942 244.33 506.793 242.781 528 236.808C526.614 234.702 525.167 232.745 523.665 230.946C455.593 154.18 367.075 196.766 323.08 326.405C291.504 419.432 276.566 523.519 264.498 629.93C254.539 718.421 244.814 808.572 221.264 889.32C188.107 1002.81 119.449 1008.23 79.906 902.041C56.0631 838.217 48.7989 765.875 48.6817 689.883C48.6817 470.978 48.6818 251.963 48.2718 32.9469C48.2718 -7.53784 49.0919 -10.4137 70.7672 -10.4137C164.498 -10.4137 258.23 -10.4137 351.961 -10.4137C357.116 -10.4137 366.489 -12.7371 366.665 -15.7236C368.788 -39.5532 369.163 -63.8208 367.778 -87.8434C367.368 -93.5953 355.242 -99.5686 348.446 -99.6793C241.124 -100.49 133.723 -100.49 26.2448 -99.6793C18.2191 -99.6793 10.2519 -97.6882 0 -96.2502V-39.6158C0 190.682 0 420.981 0 651.279" fill="#6B836B"/>
</svg>
